<?xml version="1.0" encoding="utf-8"?>
<!-- Generator: Adobe Illustrator 19.2.1, SVG Export Plug-In . SVG Version: 6.00 Build 0)  -->
<svg version="1.1" id="Layer_1" xmlns="http://www.w3.org/2000/svg" xmlns:xlink="http://www.w3.org/1999/xlink" x="0px" y="0px"
	 viewBox="0 0 237.9 117" style="enable-background:new 0 0 237.9 117;" xml:space="preserve">
<style type="text/css">
	.Drop_x0020_Shadow{fill:none;}
	.Round_x0020_Corners_x0020_2_x0020_pt{fill:#FFFFFF;stroke:#000000;stroke-miterlimit:10;}
	.Live_x0020_Reflect_x0020_X{fill:none;}
	.Bevel_x0020_Soft{fill:url(#SVGID_1_);}
	.Dusk{fill:#FFFFFF;}
	.Foliage_GS{fill:#FFDD00;}
	.Pompadour_GS{fill-rule:evenodd;clip-rule:evenodd;fill:#44ADE2;}
	.st0{fill:#F8983A;}
	.st1{fill:url(#SVGID_2_);}
	.st2{fill:url(#SVGID_3_);}
	.st3{fill:#E58825;}
	.st4{fill:#F4AF30;}
	.st5{enable-background:new    ;}
	.st6{clip-path:url(#SVGID_5_);}
	.st7{fill:#FFFFFF;}
</style>
<linearGradient id="SVGID_1_" gradientUnits="userSpaceOnUse" x1="-129.239" y1="-34.7386" x2="-128.5319" y2="-34.0315">
	<stop  offset="0" style="stop-color:#DEDFE3"/>
	<stop  offset="0.1738" style="stop-color:#D8D9DD"/>
	<stop  offset="0.352" style="stop-color:#C9CACD"/>
	<stop  offset="0.5323" style="stop-color:#B4B5B8"/>
	<stop  offset="0.7139" style="stop-color:#989A9C"/>
	<stop  offset="0.8949" style="stop-color:#797C7E"/>
	<stop  offset="1" style="stop-color:#656B6C"/>
</linearGradient>
<polygon class="st0" points="237.9,43.7 110.8,6.2 55.4,22.7 56.2,23 55.4,22.7 0,39.3 127.1,76.9 178.8,61.4 178.8,61.4 "/>
<linearGradient id="SVGID_2_" gradientUnits="userSpaceOnUse" x1="69.9274" y1="58.6576" x2="57.4911" y2="96.6981">
	<stop  offset="0" style="stop-color:#DE8626"/>
	<stop  offset="1" style="stop-color:#E58825"/>
</linearGradient>
<polygon class="st1" points="127.1,117 0,79.5 0,39.3 127.1,76.9 "/>
<linearGradient id="SVGID_3_" gradientUnits="userSpaceOnUse" x1="176.6659" y1="61.9501" x2="188.3715" y2="99.0176">
	<stop  offset="0" style="stop-color:#FBAF2C"/>
	<stop  offset="1" style="stop-color:#F8983A"/>
</linearGradient>
<polygon class="st2" points="127.1,76.9 127.1,117 237.9,83.9 237.9,43.7 "/>
<g>
	<ellipse class="st3" cx="127.1" cy="58.9" rx="25.5" ry="9.2"/>
	<rect x="101.6" y="47.6" class="st3" width="50.9" height="11.3"/>
	<ellipse class="st4" cx="127.1" cy="47.6" rx="25.5" ry="9.2"/>
</g>
<g>
	<ellipse class="st3" cx="181.6" cy="42" rx="25.5" ry="9.2"/>
	<rect x="156.2" y="30.7" class="st3" width="50.9" height="11.3"/>
	<ellipse class="st4" cx="181.6" cy="30.7" rx="25.5" ry="9.2"/>
</g>
<g>
	<ellipse class="st3" cx="59.7" cy="37.5" rx="25.5" ry="9.2"/>
	<rect x="34.2" y="26.1" class="st3" width="50.9" height="11.3"/>
	<ellipse class="st4" cx="59.7" cy="26.1" rx="25.5" ry="9.2"/>
</g>
<g>
	<ellipse class="st3" cx="114.2" cy="20.6" rx="25.5" ry="9.2"/>
	<rect x="88.8" y="9.2" class="st3" width="50.9" height="11.3"/>
	<ellipse class="st4" cx="114.2" cy="9.2" rx="25.5" ry="9.2"/>
</g>
<g>
	<g>
		<g class="st5">
			<defs>
				<polygon id="SVGID_4_" class="st5" points="156.9,105 155.9,75 218.2,57.5 219.1,87.6 				"/>
			</defs>
			<clipPath id="SVGID_5_">
				<use xlink:href="#SVGID_4_"  style="overflow:visible;"/>
			</clipPath>
			<g class="st6">
				<g>
					<g>
						<g>
							<path class="st7" d="M159.2,74c-0.6,0.2-1.1,0.4-1.5,0.7c-0.4,0.3-0.7,0.7-0.9,1c-0.2,0.4-0.4,0.9-0.5,1.4
								c-0.1,0.6-0.2,1.1-0.2,1.7c0,0.5,0,1.2,0,2c0,0.8,0.1,1.4,0.1,1.9c0.1,0.5,0.2,1,0.3,1.5c0.1,0.5,0.3,0.9,0.6,1.1
								c0.2,0.2,0.6,0.4,1,0.5c0.4,0.1,0.9,0,1.5-0.1c0.6-0.2,1.1-0.4,1.5-0.8c0.4-0.3,0.7-0.8,0.9-1.2c0.2-0.5,0.3-1,0.4-1.5
								c0.1-0.5,0.1-1.1,0.1-1.8l-1.9,0.5c0,1.1,0,1.9-0.2,2.4c-0.2,0.4-0.5,0.7-0.9,0.8c-0.3,0.1-0.5,0.1-0.7-0.1
								c-0.2-0.1-0.3-0.5-0.4-1.1c-0.1-0.6-0.2-1.4-0.2-2.5c-0.1-1.6,0-2.8,0.1-3.5s0.5-1.1,0.9-1.2c0.4-0.1,0.7,0,0.9,0.3
								s0.3,0.9,0.3,1.7l2-0.5c0-0.4,0-0.7-0.1-1.1c0-0.3-0.1-0.6-0.3-1c-0.1-0.4-0.3-0.6-0.5-0.8c-0.2-0.2-0.5-0.3-0.9-0.4
								C160.2,73.8,159.7,73.9,159.2,74"/>
							<path class="st7" d="M166.3,82.4c-0.2,0.1-0.4,0-0.6-0.1c-0.1-0.1-0.3-0.3-0.3-0.6c-0.1-0.3-0.1-0.6-0.1-0.9
								c0-0.3-0.1-0.7-0.1-1.2c0-0.5,0-0.9,0-1.2c0-0.3,0-0.6,0.1-0.9c0.1-0.3,0.2-0.6,0.3-0.7c0.1-0.2,0.3-0.3,0.5-0.4
								c0.4-0.1,0.6,0.1,0.8,0.5c0.2,0.4,0.3,1.2,0.3,2.2s0,1.9-0.2,2.4C166.9,82,166.6,82.3,166.3,82.4 M166.1,74.9
								C166.1,74.9,166,74.9,166.1,74.9c-1.1,0.3-1.8,0.9-2.2,1.7s-0.6,2-0.6,3.5c0.1,1.6,0.3,2.6,0.7,3.2c0.4,0.6,1.1,0.7,2.2,0.4
								c0,0,0.1,0,0.1,0c1-0.3,1.8-0.9,2.2-1.7c0.4-0.8,0.6-2,0.5-3.5c-0.1-1.6-0.3-2.6-0.7-3.2C167.9,74.7,167.1,74.6,166.1,74.9"
								/>
							<path class="st7" d="M177.1,71.8c-0.9,0.3-1.5,0.9-1.8,1.9l0,0c-0.2-0.8-0.8-1.1-1.7-0.9c-0.8,0.2-1.4,0.8-1.8,1.6l0,0l0-0.9
								l-1.8,0.5l0.3,8.5L172,82l-0.2-5.6c0-1,0.3-1.5,0.9-1.7c0.5-0.1,0.7,0.2,0.8,0.9l0.2,5.9l1.9-0.5l-0.2-5.6
								c0-1,0.3-1.5,0.9-1.7c0.5-0.1,0.7,0.2,0.8,0.9l0.2,5.9l1.9-0.5l-0.2-6.2C178.9,72.1,178.3,71.5,177.1,71.8"/>
							<path class="st7" d="M183.2,77.4c-0.4,0.1-0.7,0-0.8-0.4c-0.1-0.4-0.2-1.1-0.3-2.1c0-1,0-1.7,0.1-2.2
								c0.1-0.5,0.4-0.8,0.8-0.9c0.4-0.1,0.7,0,0.8,0.4c0.1,0.4,0.2,1.1,0.3,2.1c0,1,0,1.7-0.1,2.2C183.9,77,183.6,77.3,183.2,77.4
								 M183.6,70c-0.4,0.1-0.7,0.3-0.9,0.5c-0.3,0.2-0.5,0.6-0.7,1.1l0,0l0-0.9l-1.8,0.5l0.4,11.2l1.9-0.5l-0.1-3.5l0,0
								c0.4,0.5,0.9,0.7,1.6,0.5c0.8-0.2,1.3-0.7,1.7-1.5c0.3-0.8,0.5-2,0.4-3.5c-0.1-1.6-0.3-2.7-0.6-3.3
								C185,70,184.4,69.8,183.6,70"/>
							<polyline class="st7" points="188.8,66 186.9,66.5 187.3,77.7 189.1,77.2 188.8,66 							"/>
							<path class="st7" d="M192.1,67.8l-1.9,0.5l0.3,8.5l1.9-0.5L192.1,67.8 M192,64.9l-1.9,0.5l0.1,1.9l1.9-0.5L192,64.9"/>
							<path class="st7" d="M195.9,74.1c-0.2,0.1-0.4,0-0.5-0.2c-0.1-0.2-0.2-0.5-0.2-0.8c0-0.4,0.1-0.7,0.2-1
								c0.2-0.3,0.4-0.5,0.8-0.7c0.3-0.2,0.6-0.4,0.8-0.6l0.1,1.7c0,0.4-0.1,0.8-0.3,1.1C196.5,73.8,196.2,74,195.9,74.1 M196,66.5
								c-0.8,0.2-1.4,0.6-1.8,1.1c-0.5,0.5-0.7,1.3-0.6,2.2l0,0.2l1.7-0.5l0-0.2c0-0.7,0.3-1.2,0.8-1.3c0.6-0.2,0.9,0.1,0.9,0.8
								c0,0.3,0,0.5-0.1,0.7c-0.1,0.2-0.3,0.3-0.6,0.5l-1,0.6c-0.7,0.4-1.1,0.8-1.4,1.3c-0.3,0.5-0.4,1.1-0.4,1.9
								c0,0.7,0.2,1.2,0.5,1.6c0.3,0.4,0.8,0.5,1.4,0.3c0.5-0.1,0.9-0.3,1.1-0.5c0.3-0.2,0.5-0.6,0.7-1l0,0c0.1,0.4,0.2,0.7,0.3,0.8
								l1.8-0.5c-0.2-0.4-0.3-0.9-0.3-1.6l-0.1-4.5c0-0.9-0.2-1.5-0.6-1.8C197.7,66.3,197,66.2,196,66.5"/>
							<path class="st7" d="M203.6,64.4c-0.9,0.2-1.5,0.8-1.8,1.7l0,0l0-1l-1.8,0.5l0.3,8.5l1.9-0.5l-0.2-5.6c0-0.9,0.3-1.5,0.9-1.7
								c0.3-0.1,0.5-0.1,0.6,0.1c0.1,0.1,0.2,0.4,0.2,0.9l0.2,5.8l1.9-0.5l-0.2-6.3C205.5,64.7,204.8,64,203.6,64.4"/>
							<path class="st7" d="M209.4,62.8c-1,0.3-1.7,0.8-2.2,1.6c-0.5,0.8-0.7,2-0.7,3.7c0.1,1.7,0.3,2.8,0.8,3.3
								c0.5,0.5,1.2,0.6,2.2,0.4c1-0.3,1.7-0.7,2.1-1.4c0.4-0.7,0.6-1.6,0.6-2.8l-1.8,0.5c0,0.7,0,1.2-0.2,1.6
								c-0.1,0.4-0.4,0.6-0.7,0.7c-0.4,0.1-0.7,0-0.8-0.4c-0.2-0.4-0.2-1.2-0.3-2.2c0-1.1,0-1.8,0.1-2.3c0.1-0.5,0.4-0.8,0.8-0.9
								c0.6-0.2,0.9,0.3,0.9,1.5l1.8-0.5c0-1-0.3-1.8-0.7-2.2C210.9,62.6,210.2,62.5,209.4,62.8"/>
							<path class="st7" d="M214.7,64.8l0-0.3c0-0.5,0-0.9,0.2-1.3c0.1-0.4,0.4-0.6,0.7-0.7c0.4-0.1,0.6,0,0.7,0.3
								c0.1,0.3,0.2,0.8,0.3,1.5L214.7,64.8 M215.6,61c-0.5,0.1-0.9,0.3-1.3,0.6c-0.4,0.3-0.6,0.6-0.8,0.9c-0.2,0.3-0.4,0.7-0.5,1.1
								c-0.1,0.4-0.2,0.8-0.2,1.2c0,0.4,0,0.9,0,1.4c0,0.4,0,0.7,0,0.9c0,0.2,0.1,0.5,0.1,0.9c0.1,0.3,0.1,0.6,0.2,0.8
								c0.1,0.2,0.2,0.4,0.3,0.6c0.2,0.2,0.3,0.4,0.5,0.5c0.2,0.1,0.5,0.1,0.7,0.2c0.3,0,0.6,0,1-0.1c0.9-0.2,1.5-0.7,1.9-1.3
								c0.4-0.6,0.6-1.4,0.6-2.5l-1.7,0.5c0,0.6-0.1,1-0.3,1.3c-0.1,0.3-0.4,0.5-0.7,0.6c-0.3,0.1-0.6,0-0.7-0.4
								c-0.1-0.3-0.2-0.8-0.3-1.3l0-0.7l3.7-1l0-0.5c0-1.4-0.3-2.4-0.7-3.1C217.3,60.9,216.6,60.7,215.6,61"/>
							<polyline class="st7" points="170.1,87.1 164,88.8 164,90.7 166.1,90.1 166.5,99.5 168.4,98.9 168.1,89.5 170.2,88.9 
								170.1,87.1 							"/>
							<path class="st7" d="M174.5,88.4c-0.7,0.2-1.2,0.8-1.6,1.8l0,0l0-1.1l-1.8,0.5l0.3,8.5l1.9-0.5l-0.2-5.1c0-0.5,0.1-1,0.4-1.3
								c0.3-0.3,0.6-0.5,1-0.6c0.1,0,0.3-0.1,0.6-0.1l-0.1-2.1C174.7,88.4,174.6,88.4,174.5,88.4"/>
							<path class="st7" d="M178,95c-0.2,0.1-0.4,0-0.5-0.2c-0.1-0.2-0.2-0.4-0.2-0.8c0-0.4,0.1-0.7,0.2-1s0.4-0.5,0.8-0.7
								c0.3-0.2,0.6-0.4,0.8-0.6l0.1,1.7c0,0.4-0.1,0.8-0.3,1.1C178.6,94.7,178.3,94.9,178,95 M178.1,87.4c-0.8,0.2-1.4,0.6-1.8,1.1
								c-0.5,0.6-0.7,1.3-0.6,2.2l0,0.2l1.7-0.5l0-0.2c0-0.7,0.3-1.2,0.8-1.4c0.6-0.2,0.9,0.1,0.9,0.8c0,0.3,0,0.5-0.1,0.7
								c-0.1,0.2-0.3,0.3-0.6,0.5l-1,0.6c-0.7,0.4-1.1,0.8-1.4,1.3c-0.3,0.5-0.4,1.1-0.4,1.9c0,0.7,0.2,1.2,0.5,1.6
								c0.3,0.4,0.7,0.5,1.4,0.3c0.5-0.1,0.9-0.3,1.1-0.5c0.3-0.2,0.5-0.6,0.7-1l0,0c0.1,0.4,0.2,0.7,0.3,0.8l1.8-0.5
								c-0.2-0.4-0.3-0.9-0.3-1.6l-0.1-4.5c0-0.9-0.2-1.5-0.6-1.8C179.8,87.2,179.1,87.2,178.1,87.4"/>
							<path class="st7" d="M184.7,85.6c-1,0.3-1.7,0.8-2.2,1.6c-0.5,0.8-0.7,2-0.6,3.7c0.1,1.7,0.3,2.8,0.8,3.3
								c0.5,0.5,1.2,0.6,2.2,0.4s1.7-0.8,2.1-1.4c0.4-0.7,0.6-1.6,0.6-2.8l-1.8,0.5c0,0.7,0,1.2-0.2,1.6c-0.1,0.4-0.4,0.6-0.7,0.7
								c-0.4,0.1-0.7,0-0.8-0.4c-0.1-0.4-0.2-1.2-0.3-2.2c0-1.1,0-1.8,0.1-2.3c0.1-0.5,0.4-0.8,0.8-0.9c0.6-0.2,0.9,0.3,0.9,1.5
								l1.8-0.5c0-1-0.3-1.8-0.8-2.2C186.2,85.5,185.6,85.3,184.7,85.6"/>
							<polyline class="st7" points="190.2,81.5 188.3,82 188.7,93.3 190.5,92.7 190.4,90.3 191.1,89.1 192.7,92.1 194.8,91.5 
								192.2,87.1 194.2,83.1 192.2,83.7 190.4,87.4 190.3,87.4 190.2,81.5 							"/>
							<path class="st7" d="M197,82.4l-1.9,0.5l0.3,8.5l1.9-0.5L197,82.4 M196.9,79.5L195,80l0.1,1.9l1.9-0.5L196.9,79.5"/>
							<path class="st7" d="M202,80.7c-0.9,0.2-1.5,0.8-1.8,1.7l0,0l0-1l-1.8,0.5l0.3,8.5l1.9-0.5l-0.2-5.6c0-0.9,0.3-1.5,0.9-1.7
								c0.3-0.1,0.5-0.1,0.6,0.1c0.1,0.1,0.2,0.4,0.2,0.9l0.2,5.9l1.9-0.5l-0.2-6.3C203.9,81,203.2,80.4,202,80.7"/>
							<path class="st7" d="M208,86.1c-0.4,0.1-0.6,0-0.8-0.4c-0.1-0.4-0.2-0.9-0.2-1.6c0-1.2,0-2,0.1-2.5c0.1-0.5,0.4-0.7,0.8-0.9
								c0.4-0.1,0.6,0,0.8,0.4c0.2,0.4,0.2,1.1,0.3,2.1c0,0.8,0,1.4-0.2,1.9C208.6,85.7,208.3,86,208,86.1 M207.2,79.3
								c-0.5,0.1-0.9,0.4-1.2,0.7c-0.3,0.3-0.5,0.8-0.7,1.3c-0.1,0.5-0.2,1-0.3,1.4c0,0.5,0,1,0,1.6c0,1.5,0.3,2.6,0.7,3.1
								c0.4,0.6,1,0.8,1.7,0.5c0.6-0.2,1.1-0.7,1.5-1.5l0,0l0,1.1c0,1-0.3,1.6-1,1.8c-0.2,0.1-0.4,0-0.6-0.1
								c-0.2-0.1-0.3-0.3-0.3-0.6l-1.8,0.5c0,0.7,0.3,1.2,0.7,1.5c0.4,0.3,1.1,0.3,1.9,0.1c1.1-0.3,1.8-0.8,2.3-1.5
								c0.5-0.7,0.7-1.6,0.6-2.7l-0.3-8.1l-1.8,0.5l0,0.9l0,0C208.4,79.3,207.9,79.1,207.2,79.3"/>
						</g>
					</g>
				</g>
			</g>
		</g>
	</g>
</g>
</svg>
