<?xml version="1.0" encoding="utf-8"?>
<!-- Generator: Adobe Illustrator 19.2.1, SVG Export Plug-In . SVG Version: 6.00 Build 0)  -->
<svg version="1.1" id="Layer_1" xmlns="http://www.w3.org/2000/svg" xmlns:xlink="http://www.w3.org/1999/xlink" x="0px" y="0px"
	 viewBox="0 0 178.6 100" style="enable-background:new 0 0 178.6 100;" xml:space="preserve">
<style type="text/css">
	.Drop_x0020_Shadow{fill:none;}
	.Round_x0020_Corners_x0020_2_x0020_pt{fill:#FFFFFF;stroke:#000000;stroke-miterlimit:10;}
	.Live_x0020_Reflect_x0020_X{fill:none;}
	.Bevel_x0020_Soft{fill:url(#SVGID_1_);}
	.Dusk{fill:#FFFFFF;}
	.Foliage_GS{fill:#FFDD00;}
	.Pompadour_GS{fill-rule:evenodd;clip-rule:evenodd;fill:#44ADE2;}
	.st0{fill:#00A7CE;}
	.st1{fill:#00B6D5;}
	.st2{fill:url(#SVGID_2_);}
	.st3{fill:#42C2CA;}
	.st4{enable-background:new    ;}
	.st5{clip-path:url(#SVGID_4_);}
	.st6{fill:#FFFFFF;}
</style>
<linearGradient id="SVGID_1_" gradientUnits="userSpaceOnUse" x1="-157.1414" y1="-43.1248" x2="-156.4343" y2="-42.4177">
	<stop  offset="0" style="stop-color:#DEDFE3"/>
	<stop  offset="0.1738" style="stop-color:#D8D9DD"/>
	<stop  offset="0.352" style="stop-color:#C9CACD"/>
	<stop  offset="0.5323" style="stop-color:#B4B5B8"/>
	<stop  offset="0.7139" style="stop-color:#989A9C"/>
	<stop  offset="0.8949" style="stop-color:#797C7E"/>
	<stop  offset="1" style="stop-color:#656B6C"/>
</linearGradient>
<polygon class="st0" points="62.3,100 0,81.3 0,39.2 62.3,57.8 "/>
<polygon class="st1" points="178.6,23 116.3,4.3 58.2,21.7 58.4,21.8 58.2,21.8 0,39.2 62.3,57.8 127.2,38.4 127.1,38.4 "/>
<linearGradient id="SVGID_2_" gradientUnits="userSpaceOnUse" x1="62.2957" y1="61.4687" x2="178.6082" y2="61.4687">
	<stop  offset="0" style="stop-color:#42C2CA"/>
	<stop  offset="1" style="stop-color:#00B6D5"/>
</linearGradient>
<polygon class="st2" points="178.6,23 120.5,40.4 120.5,40.4 62.3,57.8 62.3,100 120.5,82.6 120.5,82.5 178.6,65.1 "/>
<ellipse class="st0" cx="61.7" cy="39.4" rx="26.7" ry="9.7"/>
<rect x="34.9" y="27.5" class="st0" width="53.4" height="11.9"/>
<ellipse class="st3" cx="61.7" cy="27.5" rx="26.7" ry="9.7"/>
<ellipse class="st0" cx="119.8" cy="21.9" rx="26.7" ry="9.7"/>
<rect x="93.1" y="10.1" class="st0" width="53.5" height="11.9"/>
<ellipse class="st3" cx="119.8" cy="9.7" rx="26.7" ry="9.7"/>
<g>
	<g>
		<g class="st4">
			<defs>
				<polygon id="SVGID_3_" class="st4" points="83.2,81 82.7,66.8 161.7,44.6 162.2,58.8 				"/>
			</defs>
			<clipPath id="SVGID_4_">
				<use xlink:href="#SVGID_3_"  style="overflow:visible;"/>
			</clipPath>
			<g class="st5">
				<g>
					<g>
						<g>
							<path class="st6" d="M86,65.8c-0.6,0.2-1.1,0.4-1.5,0.7c-0.4,0.3-0.7,0.7-0.9,1c-0.2,0.4-0.4,0.9-0.5,1.4
								c-0.1,0.6-0.2,1.1-0.2,1.7c0,0.5,0,1.2,0,2c0,0.8,0.1,1.4,0.1,1.9c0.1,0.5,0.2,1,0.3,1.5c0.1,0.5,0.3,0.9,0.6,1.1
								c0.2,0.2,0.6,0.4,1,0.5c0.4,0.1,0.9,0,1.5-0.1c0.6-0.2,1.1-0.4,1.5-0.8c0.4-0.3,0.7-0.8,0.9-1.3c0.2-0.5,0.3-1,0.4-1.5
								c0.1-0.5,0.1-1.1,0.1-1.8l-1.9,0.5c0,1.1,0,1.9-0.2,2.4c-0.2,0.4-0.5,0.7-0.9,0.8c-0.3,0.1-0.5,0-0.7-0.1
								c-0.2-0.1-0.3-0.5-0.4-1.1c-0.1-0.6-0.2-1.4-0.2-2.5c-0.1-1.6,0-2.8,0.1-3.5c0.1-0.7,0.5-1.1,0.9-1.2c0.4-0.1,0.7,0,0.9,0.3
								c0.2,0.3,0.3,0.9,0.3,1.7l2-0.5c0-0.4,0-0.7-0.1-1c0-0.3-0.1-0.6-0.3-1c-0.1-0.4-0.3-0.6-0.5-0.8c-0.2-0.2-0.5-0.3-0.9-0.4
								C87,65.7,86.6,65.7,86,65.8"/>
							<path class="st6" d="M93.1,74.2c-0.2,0.1-0.4,0-0.6,0c-0.1-0.1-0.3-0.3-0.3-0.6c-0.1-0.3-0.1-0.6-0.2-0.9
								c0-0.3,0-0.7-0.1-1.2c0-0.5,0-0.9,0-1.2c0-0.3,0-0.6,0.1-0.9c0.1-0.3,0.2-0.6,0.3-0.7c0.1-0.2,0.3-0.3,0.5-0.4
								c0.4-0.1,0.6,0,0.8,0.5c0.2,0.4,0.3,1.2,0.3,2.2s0,1.9-0.2,2.4C93.7,73.8,93.5,74.1,93.1,74.2 M93,66.7
								C92.9,66.7,92.9,66.7,93,66.7c-1.1,0.3-1.8,0.9-2.2,1.7c-0.4,0.9-0.6,2-0.6,3.5c0.1,1.6,0.3,2.6,0.7,3.2
								c0.4,0.6,1.2,0.7,2.2,0.4c0,0,0.1,0,0.1,0c1-0.3,1.8-0.9,2.2-1.7c0.4-0.8,0.6-2,0.5-3.5c-0.1-1.6-0.3-2.6-0.7-3.2
								C94.7,66.6,94,66.4,93,66.7"/>
							<path class="st6" d="M100.4,64.6c-0.9,0.2-1.5,0.8-1.8,1.7l0,0l0-1l-1.8,0.5l0.3,8.5l1.9-0.5l-0.2-5.6c0-0.9,0.3-1.5,0.9-1.7
								c0.3-0.1,0.5,0,0.6,0.1c0.1,0.1,0.2,0.4,0.2,0.9l0.2,5.8l1.9-0.5l-0.2-6.3C102.3,64.9,101.6,64.3,100.4,64.6"/>
							<path class="st6" d="M105.7,60.9l-1.9,0.5l0.1,2.4l-0.9,0.3l0,1.5l0.9-0.3l0.2,4.9c0,0.9,0.2,1.5,0.4,1.7
								c0.2,0.2,0.7,0.2,1.4,0c0.1,0,0.3-0.1,0.6-0.2c0.3-0.1,0.5-0.2,0.6-0.2l0-1.5c-0.2,0.1-0.3,0.1-0.4,0.2
								c-0.3,0.1-0.4,0.1-0.5-0.1c-0.1-0.1-0.1-0.3-0.2-0.7l-0.1-4.6l1.1-0.3l0-1.5l-1.1,0.3L105.7,60.9"/>
							<path class="st6" d="M111,61.6c-0.7,0.2-1.2,0.8-1.6,1.8l0,0l0-1.1l-1.8,0.5l0.3,8.5l1.9-0.5l-0.2-5.1c0-0.5,0.1-1,0.4-1.3
								c0.3-0.3,0.6-0.5,1-0.6c0.1,0,0.3-0.1,0.6-0.1l-0.1-2.1C111.2,61.6,111.1,61.6,111,61.6"/>
							<path class="st6" d="M114.5,68.2c-0.2,0.1-0.4,0-0.5-0.2c-0.1-0.2-0.2-0.5-0.2-0.8c0-0.4,0.1-0.7,0.2-1s0.4-0.5,0.8-0.7
								c0.3-0.2,0.6-0.4,0.8-0.7l0.1,1.7c0,0.4-0.1,0.8-0.3,1.1C115.1,67.9,114.8,68.1,114.5,68.2 M114.6,60.7
								c-0.8,0.2-1.4,0.6-1.8,1.1c-0.5,0.5-0.7,1.3-0.6,2.2l0,0.2l1.7-0.5l0-0.2c0-0.7,0.3-1.2,0.8-1.3c0.6-0.2,0.9,0.1,0.9,0.8
								c0,0.3,0,0.5-0.1,0.7c-0.1,0.2-0.3,0.3-0.6,0.5l-1,0.6c-0.7,0.4-1.1,0.8-1.4,1.3c-0.3,0.5-0.4,1.1-0.4,1.9
								c0,0.7,0.2,1.2,0.5,1.6c0.3,0.4,0.8,0.5,1.4,0.3c0.5-0.1,0.9-0.3,1.1-0.5c0.3-0.2,0.5-0.6,0.7-1l0,0c0.1,0.4,0.2,0.7,0.3,0.8
								l1.8-0.5c-0.2-0.4-0.3-0.9-0.3-1.6l-0.1-4.5c0-0.9-0.2-1.5-0.6-1.8C116.3,60.4,115.6,60.4,114.6,60.7"/>
							<path class="st6" d="M121.2,58.8c-1,0.3-1.7,0.8-2.2,1.6c-0.5,0.8-0.7,2-0.6,3.7c0.1,1.7,0.3,2.8,0.8,3.3
								c0.5,0.5,1.2,0.6,2.1,0.4c1-0.3,1.7-0.8,2.1-1.4c0.4-0.7,0.6-1.6,0.6-2.8l-1.8,0.5c0,0.7,0,1.2-0.2,1.6
								c-0.1,0.4-0.4,0.6-0.7,0.7c-0.4,0.1-0.7,0-0.8-0.4c-0.2-0.4-0.2-1.2-0.3-2.3c0-1.1,0-1.8,0.1-2.3c0.1-0.5,0.4-0.8,0.8-0.9
								c0.6-0.2,0.9,0.3,0.9,1.5l1.8-0.5c0-1-0.3-1.8-0.7-2.2C122.7,58.7,122.1,58.6,121.2,58.8"/>
							<path class="st6" d="M127,54.9l-1.9,0.5l0.1,2.4l-0.9,0.3l0,1.5l0.9-0.3l0.2,4.9c0,0.9,0.2,1.5,0.4,1.7
								c0.2,0.2,0.7,0.2,1.4,0c0.1,0,0.3-0.1,0.6-0.2c0.3-0.1,0.5-0.2,0.6-0.2l0-1.5c-0.2,0.1-0.3,0.1-0.4,0.2
								c-0.3,0.1-0.4,0.1-0.5-0.1c-0.1-0.1-0.1-0.3-0.2-0.7l-0.1-4.6l1.1-0.3l0-1.5l-1.1,0.3L127,54.9"/>
							<path class="st6" d="M134.8,52.2c-0.9,0.3-1.7,0.8-2.2,1.5c-0.5,0.7-0.7,1.6-0.7,2.7c0,0.9,0.2,1.6,0.7,2
								c0.4,0.4,1.1,0.6,2,0.7c0.7,0.1,1.1,0.2,1.4,0.4c0.2,0.2,0.4,0.5,0.4,1c0,0.4-0.1,0.8-0.3,1.1c-0.2,0.3-0.5,0.5-0.8,0.6
								c-0.5,0.1-0.8,0.1-1-0.2c-0.2-0.2-0.3-0.6-0.3-1.2l0-0.3l-2,0.5l0,0.5c0,1.1,0.3,1.8,0.8,2.2c0.5,0.4,1.3,0.5,2.4,0.2
								c2.2-0.6,3.3-2.1,3.2-4.3c0-0.7-0.2-1.3-0.4-1.6c-0.3-0.4-0.8-0.6-1.5-0.8l-1.5-0.3c-0.4-0.1-0.7-0.2-0.8-0.4
								c-0.2-0.2-0.2-0.5-0.2-0.8c0-0.9,0.3-1.4,1.1-1.6c0.7-0.2,1.1,0.3,1.1,1.4l1.9-0.5l0-0.3c0-1-0.3-1.7-0.9-2.1
								C136.4,52,135.7,51.9,134.8,52.2"/>
							<path class="st6" d="M140.8,56.8l0-0.3c0-0.5,0-0.9,0.2-1.3c0.1-0.4,0.4-0.6,0.7-0.7c0.4-0.1,0.6,0,0.7,0.3
								c0.1,0.3,0.2,0.8,0.3,1.5L140.8,56.8 M141.7,53c-0.5,0.1-0.9,0.3-1.3,0.6c-0.4,0.3-0.6,0.6-0.8,0.9c-0.2,0.3-0.4,0.7-0.5,1.1
								c-0.1,0.4-0.2,0.8-0.2,1.2c0,0.4,0,0.9,0,1.4c0,0.4,0,0.7,0,0.9s0.1,0.5,0.1,0.9c0.1,0.3,0.1,0.6,0.2,0.8
								c0.1,0.2,0.2,0.4,0.3,0.6c0.1,0.2,0.3,0.4,0.5,0.5c0.2,0.1,0.4,0.1,0.7,0.2c0.3,0,0.6,0,1-0.1c0.9-0.2,1.5-0.7,1.9-1.3
								c0.4-0.6,0.6-1.4,0.6-2.5l-1.7,0.5c0,0.6-0.1,1-0.3,1.3c-0.1,0.3-0.4,0.5-0.7,0.6c-0.3,0.1-0.6,0-0.7-0.4
								c-0.2-0.3-0.2-0.8-0.3-1.4l0-0.7l3.7-1l0-0.5c0-1.4-0.3-2.5-0.7-3.1C143.4,52.9,142.7,52.8,141.7,53"/>
							<path class="st6" d="M147.6,49.2l-1.9,0.5l0.1,2.4l-0.9,0.3l0,1.5l0.9-0.3l0.2,4.9c0,0.9,0.2,1.5,0.4,1.7
								c0.2,0.2,0.7,0.2,1.4,0c0.1,0,0.3-0.1,0.6-0.2s0.5-0.2,0.6-0.2l0-1.5c-0.2,0.1-0.3,0.1-0.4,0.2c-0.3,0.1-0.4,0.1-0.5-0.1
								c-0.1-0.1-0.2-0.3-0.2-0.7l-0.1-4.6l1.1-0.3l0-1.5l-1.1,0.3L147.6,49.2"/>
							<path class="st6" d="M154.9,49.6l-1.9,0.5l0.2,5.6c0,0.9-0.3,1.5-0.9,1.7c-0.3,0.1-0.5,0-0.6-0.1c-0.1-0.1-0.2-0.4-0.2-0.9
								l-0.2-5.9l-1.9,0.5l0.2,6.3c0,0.8,0.2,1.4,0.5,1.7c0.3,0.3,0.8,0.3,1.4,0.2c0.9-0.2,1.5-0.8,1.8-1.7l0,0l0,1l1.8-0.5
								L154.9,49.6"/>
							<path class="st6" d="M159.2,55.5c-0.4,0.1-0.7,0-0.8-0.4c-0.2-0.4-0.2-1.1-0.3-2.1c0-1,0-1.7,0.1-2.2
								c0.1-0.5,0.4-0.8,0.8-0.9c0.4-0.1,0.7,0,0.8,0.4c0.1,0.4,0.2,1.1,0.3,2.1c0,1,0,1.7-0.1,2.2
								C159.9,55.1,159.6,55.4,159.2,55.5 M159.6,48c-0.4,0.1-0.7,0.3-0.9,0.5c-0.3,0.3-0.5,0.6-0.7,1.1l0,0l0-0.9l-1.8,0.5
								l0.4,11.2l1.9-0.5l-0.1-3.5l0,0c0.4,0.5,0.9,0.7,1.6,0.5c0.8-0.2,1.3-0.7,1.7-1.5c0.3-0.8,0.5-2,0.4-3.5
								c-0.1-1.6-0.3-2.6-0.6-3.3C160.9,48,160.4,47.8,159.6,48"/>
						</g>
					</g>
				</g>
			</g>
		</g>
	</g>
</g>
</svg>
