<?xml version="1.0" encoding="utf-8"?>
<!-- Generator: Adobe Illustrator 19.2.1, SVG Export Plug-In . SVG Version: 6.00 Build 0)  -->
<svg version="1.1" id="Layer_1" xmlns="http://www.w3.org/2000/svg" xmlns:xlink="http://www.w3.org/1999/xlink" x="0px" y="0px"
	 viewBox="0 0 408.9 200.6" style="enable-background:new 0 0 408.9 200.6;" xml:space="preserve">
<style type="text/css">
	.Drop_x0020_Shadow{fill:none;}
	.Round_x0020_Corners_x0020_2_x0020_pt{fill:#FFFFFF;stroke:#000000;stroke-miterlimit:10;}
	.Live_x0020_Reflect_x0020_X{fill:none;}
	.Bevel_x0020_Soft{fill:url(#SVGID_1_);}
	.Dusk{fill:#FFFFFF;}
	.Foliage_GS{fill:#FFDD00;}
	.Pompadour_GS{fill-rule:evenodd;clip-rule:evenodd;fill:#44ADE2;}
	.st0{fill:url(#SVGID_2_);}
	.st1{fill:#125FAC;}
	.st2{fill:url(#SVGID_3_);}
	.st3{fill:#134A89;}
	.st4{enable-background:new    ;}
	.st5{clip-path:url(#SVGID_5_);}
	.st6{fill:#FFFFFF;}
</style>
<linearGradient id="SVGID_1_" gradientUnits="userSpaceOnUse" x1="-43.6391" y1="6.8972" x2="-42.932" y2="7.6043">
	<stop  offset="0" style="stop-color:#DEDFE3"/>
	<stop  offset="0.1738" style="stop-color:#D8D9DD"/>
	<stop  offset="0.352" style="stop-color:#C9CACD"/>
	<stop  offset="0.5323" style="stop-color:#B4B5B8"/>
	<stop  offset="0.7139" style="stop-color:#989A9C"/>
	<stop  offset="0.8949" style="stop-color:#797C7E"/>
	<stop  offset="1" style="stop-color:#656B6C"/>
</linearGradient>
<linearGradient id="SVGID_2_" gradientUnits="userSpaceOnUse" x1="61.5365" y1="114.0252" x2="46.0583" y2="182.3512">
	<stop  offset="0" style="stop-color:#015095"/>
	<stop  offset="1" style="stop-color:#02539C"/>
</linearGradient>
<polygon class="st0" points="107.6,200.6 0,168.5 0,95.6 107.6,127.8 "/>
<polygon class="st1" points="408.9,37.6 301.3,5.4 200.9,35.5 200.9,35.5 100.4,65.5 100.9,65.7 100.5,65.6 0,95.6 107.6,127.8 
	219.6,94.3 219.6,94.3 "/>
<linearGradient id="SVGID_3_" gradientUnits="userSpaceOnUse" x1="107.6162" y1="119.1396" x2="408.9474" y2="119.1396">
	<stop  offset="0" style="stop-color:#16477F"/>
	<stop  offset="1" style="stop-color:#154881"/>
</linearGradient>
<polygon class="st2" points="308.5,67.7 308.5,67.7 208.1,97.7 208.1,97.7 107.6,127.8 107.6,200.6 208.1,170.6 208.1,170.6 
	308.5,140.5 308.5,140.5 408.9,110.4 408.9,37.6 "/>
<path class="st3" d="M360.6,37.3c0,9.2-20.7,16.7-46.2,16.7c-25.5,0-46.2-7.5-46.2-16.7c0-9.3,20.7-16.8,46.2-16.8
	C339.9,20.5,360.6,28,360.6,37.3z"/>
<rect x="268.3" y="16.8" class="st3" width="92.3" height="20.5"/>
<path class="st1" d="M360.6,16.8c0,9.3-20.7,16.8-46.2,16.8c-25.5,0-46.2-7.5-46.2-16.8c0-9.2,20.7-16.8,46.2-16.8
	C339.9,0,360.6,7.5,360.6,16.8z"/>
<g>
	<path class="st3" d="M149.2,96.5c0,9.2-20.7,16.7-46.2,16.7c-25.5,0-46.2-7.5-46.2-16.7c0-9.3,20.7-16.8,46.2-16.8
		C128.5,79.8,149.2,87.3,149.2,96.5z"/>
	<rect x="56.9" y="76" class="st3" width="92.3" height="20.5"/>
	<path class="st1" d="M149.2,76c0,9.3-20.7,16.8-46.2,16.8c-25.5,0-46.2-7.5-46.2-16.8c0-9.2,20.7-16.8,46.2-16.8
		C128.5,59.2,149.2,66.7,149.2,76z"/>
</g>
<g>
	<path class="st3" d="M254.9,64.3c0,9.2-20.7,16.7-46.2,16.7c-25.5,0-46.2-7.5-46.2-16.7c0-9.3,20.7-16.8,46.2-16.8
		C234.2,47.6,254.9,55.1,254.9,64.3z"/>
	<rect x="162.6" y="43.8" class="st3" width="92.3" height="20.5"/>
	<path class="st1" d="M254.9,43.8c0,9.3-20.7,16.8-46.2,16.8c-25.5,0-46.2-7.5-46.2-16.8c0-9.2,20.7-16.8,46.2-16.8
		C234.2,27,254.9,34.5,254.9,43.8z"/>
</g>
<g>
	<g>
		<g class="st4">
			<defs>
				<polygon id="SVGID_4_" class="st4" points="177.6,162 177.2,129.9 359.8,74.4 360.3,106.5 				"/>
			</defs>
			<clipPath id="SVGID_5_">
				<use xlink:href="#SVGID_4_"  style="overflow:visible;"/>
			</clipPath>
			<g class="st5">
				<g>
					<g>
						<g>
							<polyline class="st6" points="194,126.3 188.7,127.9 188.9,139.4 182.7,141.3 182.5,129.8 177.2,131.4 177.6,161.6 
								182.9,159.9 182.7,146.6 188.9,144.7 189.1,158.1 194.4,156.5 194,126.3 							"/>
							<path class="st6" d="M202.1,140.1l0-0.9c0-1.3,0.2-2.4,0.6-3.4c0.4-1,1.1-1.6,2-1.9c1-0.3,1.7-0.1,2,0.7
								c0.4,0.7,0.6,2.1,0.6,4L202.1,140.1 M204.8,129.9c-1.3,0.4-2.5,1-3.4,1.7c-1,0.7-1.7,1.5-2.3,2.4c-0.6,0.9-1,1.9-1.3,3
								c-0.3,1.2-0.5,2.3-0.6,3.4c-0.1,1.1-0.1,2.3-0.1,3.6c0,1,0,1.8,0.1,2.5c0,0.6,0.1,1.4,0.2,2.3c0.1,0.9,0.3,1.6,0.5,2.2
								s0.5,1.1,0.9,1.6c0.4,0.5,0.9,0.9,1.4,1.2c0.5,0.2,1.2,0.4,2,0.4s1.7-0.1,2.7-0.5c2.4-0.7,4.1-1.9,5.3-3.6
								c1.1-1.7,1.7-3.9,1.8-6.7l-4.6,1.4c-0.1,1.5-0.4,2.7-0.8,3.5c-0.4,0.8-1,1.3-1.8,1.6c-0.9,0.3-1.5,0-1.9-0.9
								c-0.4-0.9-0.6-2.1-0.6-3.6l0-1.8l10-3.1l0-1.3c-0.1-3.8-0.6-6.5-1.7-8.2C209.4,129.5,207.5,129.1,204.8,129.9"/>
							<path class="st6" d="M221,145c-0.6,0.2-1.1,0-1.4-0.4c-0.3-0.5-0.5-1.2-0.5-2.1c0-1,0.2-1.9,0.6-2.6c0.4-0.7,1.2-1.4,2.2-1.9
								c0.9-0.5,1.6-1.1,2.1-1.8l0.1,4.5c0,1.1-0.3,2.1-0.9,2.9C222.6,144.2,221.9,144.7,221,145 M221.6,124.8
								c-2.1,0.6-3.8,1.7-5,3.2c-1.3,1.5-1.9,3.5-1.8,5.9l0,0.5l4.6-1.4l0-0.6c0-2,0.7-3.2,2.3-3.7c1.6-0.5,2.4,0.2,2.4,2.1
								c0,0.8-0.1,1.4-0.4,1.9c-0.3,0.5-0.8,1-1.6,1.4l-2.9,1.8c-1.8,1.1-3.1,2.3-3.8,3.6c-0.7,1.3-1.1,2.9-1.1,5
								c0,1.8,0.4,3.2,1.2,4.2c0.8,1,2,1.3,3.6,0.8c1.3-0.4,2.4-0.9,3.1-1.5c0.7-0.6,1.4-1.6,1.9-2.9l0.1,0c0.2,1.1,0.4,1.8,0.7,2.2
								l4.9-1.5c-0.4-1.1-0.7-2.5-0.7-4.2l-0.2-11.9c0-2.3-0.5-3.9-1.6-4.8C226.3,124,224.4,124,221.6,124.8"/>
							<polyline class="st6" points="237.5,113.1 232.4,114.6 232.9,144.8 238,143.2 237.5,113.1 							"/>
							<path class="st6" d="M247.3,111.1l-5.1,1.5l0.1,6.5l-2.6,0.8l0.1,4l2.6-0.8l0.2,13c0,2.4,0.4,3.9,1,4.5
								c0.6,0.6,1.9,0.6,3.8,0c0.4-0.1,1-0.3,1.7-0.6s1.3-0.4,1.6-0.6l-0.1-4.1c-0.4,0.2-0.8,0.3-1.1,0.4c-0.7,0.2-1.2,0.2-1.4-0.1
								c-0.3-0.3-0.4-0.9-0.4-1.8l-0.2-12.3l2.9-0.9l-0.1-4l-2.9,0.9L247.3,111.1"/>
							<path class="st6" d="M257.1,107.2l-5.1,1.5l0.4,30.1l5.1-1.5l-0.2-15.1c0-2.5,0.8-4,2.6-4.6c0.8-0.2,1.3-0.2,1.7,0.2
								c0.4,0.4,0.5,1.1,0.6,2.3l0.2,15.7l5.1-1.5l-0.2-16.8c-0.1-4.3-1.8-5.9-5.1-4.9c-2.2,0.7-3.8,2.1-4.8,4.4l-0.1,0L257.1,107.2
								"/>
							<path class="st6" d="M276.2,127.1l-0.1-9.1l2.3-0.7c2.7-0.8,4.1,0.3,4.1,3.3c0,1.7-0.3,2.9-1.1,3.9s-1.8,1.6-3.1,2
								L276.2,127.1 M276,113.8l-0.1-7.9l1.9-0.6c1.3-0.4,2.3-0.4,2.9,0c0.6,0.4,0.9,1.3,0.9,2.7c0,1.4-0.3,2.6-1,3.4
								c-0.7,0.8-1.7,1.4-3.2,1.9L276,113.8 M279.4,100.4l-8.9,2.7l0.4,30.1l8.9-2.7c2.9-0.9,5-2.3,6.2-4.4c1.3-2,1.9-4.3,1.8-7
								c0-2-0.5-3.5-1.3-4.4c-0.9-1-2-1.3-3.5-1.1l0-0.1c1.3-0.8,2.3-1.9,2.9-3.3c0.7-1.4,1-2.9,0.9-4.5
								C286.9,100.6,284.4,98.9,279.4,100.4"/>
							<path class="st6" d="M295.4,111.8l0-0.9c0-1.3,0.2-2.4,0.6-3.4c0.4-1,1.1-1.6,2-1.9c1-0.3,1.6-0.1,2,0.7
								c0.4,0.7,0.6,2.1,0.6,4L295.4,111.8 M298.1,101.6c-1.3,0.4-2.5,1-3.4,1.7c-1,0.7-1.7,1.5-2.3,2.4c-0.6,0.9-1,1.9-1.3,3
								c-0.3,1.2-0.5,2.3-0.6,3.4c-0.1,1.1-0.1,2.3-0.1,3.6c0,1,0,1.8,0.1,2.5c0,0.6,0.1,1.4,0.2,2.3c0.1,0.9,0.3,1.6,0.5,2.2
								c0.2,0.5,0.5,1.1,0.9,1.6c0.4,0.5,0.9,0.9,1.4,1.2c0.5,0.2,1.2,0.4,2,0.4c0.8,0,1.7-0.1,2.7-0.5c2.4-0.7,4.1-1.9,5.3-3.6
								c1.1-1.7,1.7-3.9,1.8-6.7l-4.6,1.4c-0.1,1.5-0.4,2.7-0.8,3.5c-0.4,0.8-1,1.3-1.8,1.6c-0.9,0.3-1.5,0-1.9-0.9
								c-0.4-0.9-0.6-2.1-0.6-3.6l0-1.8l10-3.1l0-1.3c-0.1-3.8-0.6-6.5-1.7-8.2C302.8,101.1,300.9,100.7,298.1,101.6"/>
							<path class="st6" d="M314.4,116.6c-0.6,0.2-1.1,0-1.4-0.4c-0.3-0.5-0.5-1.2-0.5-2.1c0-1,0.2-1.9,0.6-2.6
								c0.4-0.7,1.2-1.4,2.2-1.9c0.9-0.5,1.6-1.1,2.2-1.8l0.1,4.5c0,1.1-0.3,2.1-0.9,2.9C315.9,115.9,315.2,116.4,314.4,116.6
								 M314.9,96.5c-2.1,0.6-3.8,1.7-5,3.2c-1.3,1.5-1.9,3.5-1.8,5.9l0,0.5l4.6-1.4l0-0.6c0-2,0.7-3.2,2.3-3.7
								c1.6-0.5,2.4,0.2,2.4,2.1c0,0.8-0.1,1.4-0.4,1.9s-0.8,1-1.6,1.4l-2.9,1.8c-1.8,1.1-3.1,2.3-3.8,3.6c-0.7,1.3-1.1,2.9-1.1,5
								c0,1.8,0.4,3.2,1.2,4.2c0.8,1,2,1.3,3.7,0.8c1.3-0.4,2.4-0.9,3.1-1.5c0.7-0.6,1.4-1.6,1.9-2.8l0.1,0c0.2,1.1,0.4,1.8,0.7,2.2
								l4.9-1.5c-0.4-1.1-0.7-2.5-0.7-4.2l-0.2-11.9c0-2.3-0.6-3.9-1.6-4.8C319.6,95.6,317.7,95.6,314.9,96.5"/>
							<path class="st6" d="M331.8,85.4l-5.1,1.5l0.1,6.5l-2.6,0.8l0.1,4l2.6-0.8l0.2,13c0,2.4,0.4,3.9,1,4.5c0.6,0.6,1.9,0.6,3.8,0
								c0.4-0.1,1-0.3,1.7-0.6c0.7-0.3,1.3-0.4,1.6-0.6l-0.1-4.1c-0.4,0.2-0.8,0.3-1.1,0.4c-0.7,0.2-1.2,0.2-1.4-0.1
								c-0.3-0.3-0.4-0.9-0.4-1.8l-0.2-12.3l2.9-0.9l-0.1-4l-2.9,0.9L331.8,85.4"/>
							<polyline class="st6" points="344.8,79 335,82 335.1,84.9 338.4,83.9 338.6,98.5 341.7,97.6 341.5,82.9 344.8,81.9 344.8,79 
															"/>
							<polyline class="st6" points="359.8,74.4 355.2,75.8 353.2,88.9 353.1,88.9 350.8,77.2 346.2,78.6 346.4,96.2 349.3,95.3 
								349.1,81.3 349.1,81.2 352,94.4 354.4,93.7 357,78.9 357,78.8 357.2,92.9 360,92 359.8,74.4 							"/>
						</g>
					</g>
				</g>
			</g>
		</g>
	</g>
</g>
</svg>
