<?xml version="1.0" encoding="utf-8"?>
<!-- Generator: Adobe Illustrator 19.2.1, SVG Export Plug-In . SVG Version: 6.00 Build 0)  -->
<svg version="1.1" id="Layer_1" xmlns="http://www.w3.org/2000/svg" xmlns:xlink="http://www.w3.org/1999/xlink" x="0px" y="0px"
	 viewBox="0 0 178.6 100" style="enable-background:new 0 0 178.6 114.3;" xml:space="preserve">
<style type="text/css">
	.Drop_x0020_Shadow{fill:none;}
	.Round_x0020_Corners_x0020_2_x0020_pt{fill:#FFFFFF;stroke:#000000;stroke-miterlimit:10;}
	.Live_x0020_Reflect_x0020_X{fill:none;}
	.Bevel_x0020_Soft{fill:url(#SVGID_1_);}
	.Dusk{fill:#FFFFFF;}
	.Foliage_GS{fill:#FFDD00;}
	.Pompadour_GS{fill-rule:evenodd;clip-rule:evenodd;fill:#44ADE2;}
	.st0{fill:url(#SVGID_2_);}
	.st1{fill:#125FAC;}
	.st2{fill:url(#SVGID_3_);}
	.st3{fill:#134A89;}
	.st4{enable-background:new    ;}
	.st5{clip-path:url(#SVGID_5_);}
	.st6{fill:#FFFFFF;}
	.st7{clip-path:url(#SVGID_7_);}
</style>
<linearGradient id="SVGID_1_" gradientUnits="userSpaceOnUse" x1="-154.614" y1="-37.9737" x2="-153.9069" y2="-37.2666">
	<stop  offset="0" style="stop-color:#DEDFE3"/>
	<stop  offset="0.1738" style="stop-color:#D8D9DD"/>
	<stop  offset="0.352" style="stop-color:#C9CACD"/>
	<stop  offset="0.5323" style="stop-color:#B4B5B8"/>
	<stop  offset="0.7139" style="stop-color:#989A9C"/>
	<stop  offset="0.8949" style="stop-color:#797C7E"/>
	<stop  offset="1" style="stop-color:#656B6C"/>
</linearGradient>
<linearGradient id="SVGID_2_" gradientUnits="userSpaceOnUse" x1="36.9906" y1="50.5515" x2="25.3287" y2="88.4937">
	<stop  offset="0" style="stop-color:#16477F"/>
	<stop  offset="1" style="stop-color:#154881"/>
</linearGradient>
<polygon class="st0" points="62.3,100 0,81.3 0,39.2 62.3,57.8 "/>
<polygon class="st1" points="178.6,23 116.3,4.3 58.2,21.7 58.4,21.8 58.2,21.8 0,39.2 62.3,57.8 127.2,38.4 127.1,38.4 "/>
<linearGradient id="SVGID_3_" gradientUnits="userSpaceOnUse" x1="62.2957" y1="61.4687" x2="178.6082" y2="61.4687">
	<stop  offset="0" style="stop-color:#015095"/>
	<stop  offset="1" style="stop-color:#02539C"/>
</linearGradient>
<polygon class="st2" points="178.6,23 120.5,40.4 120.5,40.4 62.3,57.8 62.3,100 120.5,82.6 120.5,82.5 178.6,65.1 "/>
<ellipse class="st3" cx="61.7" cy="39.4" rx="26.7" ry="9.7"/>
<rect x="34.9" y="27.5" class="st3" width="53.4" height="11.9"/>
<ellipse class="st1" cx="61.7" cy="27.5" rx="26.7" ry="9.7"/>
<ellipse class="st3" cx="119.8" cy="21.9" rx="26.7" ry="9.7"/>
<rect x="93.1" y="10.1" class="st3" width="53.5" height="11.9"/>
<ellipse class="st1" cx="119.8" cy="9.7" rx="26.7" ry="9.7"/>
<g>
	<g>
		<g class="st4">
			<defs>
				<polygon id="SVGID_4_" class="st4" points="77.3,80.6 76.6,59.4 165.4,34.5 166.1,55.7 				"/>
			</defs>
			<clipPath id="SVGID_5_">
				<use xlink:href="#SVGID_4_"  style="overflow:visible;"/>
			</clipPath>
			<g class="st5">
				<g>
					<g>
						<g>
							<polyline class="st6" points="89.6,59.8 85.2,61 83.5,73.5 83.5,73.5 81,62.2 76.7,63.4 77.2,80.3 79.9,79.5 79.5,66.1 
								79.5,66.1 82.5,78.8 84.8,78.2 87,64 87,64 87.4,77.4 90.1,76.7 89.6,59.8 							"/>
							<path class="st6" d="M96.3,57.6c-0.9,0.2-1.6,0.6-2.2,1c-0.6,0.5-1.1,1-1.4,1.6c-0.3,0.6-0.6,1.3-0.8,2.1
								c-0.2,0.9-0.3,1.7-0.3,2.5c0,0.8,0,1.8,0,2.9c0,1.1,0.1,2.1,0.2,2.9c0.1,0.8,0.2,1.5,0.5,2.3c0.2,0.7,0.5,1.3,0.9,1.6
								c0.4,0.4,0.9,0.6,1.5,0.7c0.6,0.1,1.3,0,2.2-0.2c0.9-0.3,1.7-0.6,2.3-1.2c0.6-0.5,1.1-1.1,1.4-1.9c0.3-0.7,0.5-1.5,0.6-2.3
								c0.1-0.8,0.1-1.7,0.1-2.7l-2.9,0.8c0.1,1.7-0.1,2.9-0.4,3.5c-0.3,0.7-0.7,1.1-1.3,1.3c-0.4,0.1-0.8,0.1-1.1-0.1
								c-0.3-0.2-0.5-0.7-0.7-1.6c-0.2-0.9-0.3-2.1-0.3-3.8c-0.1-2.5,0-4.2,0.2-5.2c0.2-1,0.7-1.6,1.4-1.8c0.6-0.2,1.1,0,1.4,0.4
								c0.3,0.5,0.4,1.3,0.5,2.6l2.9-0.8c0-0.6-0.1-1.1-0.1-1.6c-0.1-0.4-0.2-0.9-0.4-1.5c-0.2-0.6-0.4-1-0.8-1.3
								c-0.3-0.3-0.8-0.5-1.4-0.6C97.8,57.3,97.1,57.4,96.3,57.6"/>
							<polyline class="st6" points="108.4,63.2 102.7,64.9 102.8,67.6 108.5,66 108.4,63.2 							"/>
							<polyline class="st6" points="118.6,51.7 109.3,54.3 109.4,57.1 112.6,56.2 113,70.3 115.9,69.5 115.5,55.4 118.7,54.5 
								118.6,51.7 							"/>
							<path class="st6" d="M125.1,53.7c-1.1,0.3-1.9,1.2-2.5,2.7l0,0l-0.1-1.7l-2.7,0.8l0.4,12.7l2.8-0.8l-0.2-7.6
								c0-0.8,0.2-1.4,0.6-1.9c0.4-0.5,0.9-0.8,1.4-1c0.2,0,0.5-0.1,0.9-0.2l-0.1-3.1C125.4,53.6,125.2,53.7,125.1,53.7"/>
							<path class="st6" d="M130.4,63.5c-0.4,0.1-0.6,0-0.8-0.3c-0.2-0.3-0.3-0.7-0.3-1.2c0-0.6,0.1-1.1,0.3-1.4
								c0.2-0.4,0.6-0.7,1.2-1c0.5-0.3,0.9-0.6,1.2-1l0.1,2.5c0,0.7-0.1,1.2-0.5,1.6C131.2,63.1,130.8,63.4,130.4,63.5 M130.4,52.2
								c-1.1,0.3-2.1,0.9-2.7,1.7c-0.7,0.8-1,1.9-1,3.3l0,0.3l2.5-0.7l0-0.4c0-1.1,0.4-1.8,1.2-2c0.9-0.2,1.3,0.2,1.3,1.2
								c0,0.4-0.1,0.8-0.2,1c-0.2,0.3-0.4,0.5-0.9,0.8l-1.6,0.9c-1,0.6-1.7,1.2-2.1,1.9c-0.4,0.7-0.6,1.6-0.5,2.8
								c0,1,0.3,1.8,0.7,2.4c0.5,0.6,1.1,0.7,2,0.5c0.7-0.2,1.3-0.5,1.7-0.8c0.4-0.3,0.7-0.8,1-1.6l0,0c0.1,0.6,0.3,1,0.4,1.2
								l2.7-0.8c-0.3-0.6-0.4-1.4-0.4-2.4l-0.2-6.7c0-1.3-0.3-2.2-0.9-2.7C133,51.8,132,51.8,130.4,52.2"/>
							<path class="st6" d="M140.4,49.4c-1.4,0.4-2.5,1.2-3.2,2.4c-0.7,1.2-1.1,3.1-1,5.5c0.1,2.5,0.5,4.1,1.2,4.9
								c0.7,0.8,1.8,1,3.2,0.6c1.5-0.4,2.5-1.1,3.1-2.2c0.6-1,0.9-2.4,0.9-4.1l-2.7,0.8c0,1-0.1,1.8-0.3,2.4c-0.2,0.5-0.5,0.9-1,1
								c-0.6,0.2-1-0.1-1.2-0.7c-0.2-0.6-0.4-1.7-0.4-3.4c-0.1-1.6,0-2.7,0.2-3.5c0.2-0.7,0.6-1.2,1.3-1.3c0.8-0.2,1.3,0.5,1.3,2.2
								l2.7-0.8c0-1.5-0.4-2.7-1.1-3.3C142.7,49.2,141.7,49.1,140.4,49.4"/>
							<polyline class="st6" points="148.6,43.3 145.8,44.1 146.3,60.9 149.1,60.2 149,56.5 149.9,54.7 152.4,59.2 155.5,58.4 
								151.7,51.7 154.7,45.8 151.6,46.6 148.9,52.2 148.9,52.2 148.6,43.3 							"/>
							<path class="st6" d="M159.7,41.6l-0.1-1.6l0.8-0.2c0.7-0.2,1.1,0,1.1,0.5c0,0.3-0.1,0.6-0.2,0.7c-0.2,0.2-0.4,0.3-0.7,0.4
								L159.7,41.6 M160.5,38.7l-2.2,0.6l0.2,6.4l1.2-0.3l-0.1-2.6l0.4-0.1l1.4,2.2l1.3-0.4l-1.4-2.3c0.4-0.2,0.7-0.5,1-0.8
								c0.2-0.4,0.4-0.8,0.3-1.3C162.7,38.7,161.9,38.3,160.5,38.7 M160.6,46.2c-1,0.3-1.9,0.1-2.6-0.5c-0.7-0.6-1.1-1.5-1.1-2.7
								c0-1.2,0.3-2.3,0.9-3.3c0.7-1,1.5-1.7,2.5-2c1-0.3,1.9-0.1,2.6,0.5c0.7,0.6,1.1,1.6,1.1,2.7c0,1.2-0.3,2.3-0.9,3.3
								C162.5,45.2,161.6,45.9,160.6,46.2 M160.3,35.9c-1.4,0.4-2.6,1.3-3.6,2.8c-1,1.4-1.4,3-1.4,4.6c0.1,1.7,0.6,2.9,1.6,3.8
								c1,0.9,2.3,1.1,3.7,0.7c1.4-0.4,2.6-1.3,3.6-2.7c1-1.4,1.4-3,1.4-4.6c-0.1-1.6-0.6-2.9-1.6-3.8
								C162.9,35.8,161.7,35.5,160.3,35.9"/>
						</g>
					</g>
				</g>
			</g>
		</g>
	</g>
</g>

</svg>
