<?xml version="1.0" encoding="utf-8"?>
<!-- Generator: Adobe Illustrator 19.2.1, SVG Export Plug-In . SVG Version: 6.00 Build 0)  -->
<svg version="1.1" id="Layer_1" xmlns="http://www.w3.org/2000/svg" xmlns:xlink="http://www.w3.org/1999/xlink" x="0px" y="0px"
	 viewBox="0 0 409.8 198" style="enable-background:new 0 0 409.8 198;" xml:space="preserve">
<style type="text/css">
	.Drop_x0020_Shadow{fill:none;}
	.Round_x0020_Corners_x0020_2_x0020_pt{fill:#FFFFFF;stroke:#000000;stroke-miterlimit:10;}
	.Live_x0020_Reflect_x0020_X{fill:none;}
	.Bevel_x0020_Soft{fill:url(#SVGID_1_);}
	.Dusk{fill:#FFFFFF;}
	.Foliage_GS{fill:#FFDD00;}
	.Pompadour_GS{fill-rule:evenodd;clip-rule:evenodd;fill:#44ADE2;}
	.st0{fill:url(#SVGID_2_);}
	.st1{fill:url(#SVGID_3_);}
	.st2{fill:#E58825;}
	.st3{enable-background:new    ;}
	.st4{clip-path:url(#SVGID_5_);}
	.st5{fill:#FFFFFF;}
	.st6{fill:#F4AF30;}
</style>
<linearGradient id="SVGID_1_" gradientUnits="userSpaceOnUse" x1="-26.0196" y1="6.0692" x2="-25.3125" y2="6.7763">
	<stop  offset="0" style="stop-color:#DEDFE3"/>
	<stop  offset="0.1738" style="stop-color:#D8D9DD"/>
	<stop  offset="0.352" style="stop-color:#C9CACD"/>
	<stop  offset="0.5323" style="stop-color:#B4B5B8"/>
	<stop  offset="0.7139" style="stop-color:#989A9C"/>
	<stop  offset="0.8949" style="stop-color:#797C7E"/>
	<stop  offset="1" style="stop-color:#656B6C"/>
</linearGradient>
<linearGradient id="SVGID_2_" gradientUnits="userSpaceOnUse" x1="61.6651" y1="111.1568" x2="46.1546" y2="179.6256">
	<stop  offset="0" style="stop-color:#DE8626"/>
	<stop  offset="1" style="stop-color:#E58825"/>
</linearGradient>
<polygon class="st0" points="107.8,198 0,165.7 0,92.7 107.8,125 "/>
<linearGradient id="SVGID_3_" gradientUnits="userSpaceOnUse" x1="247.8895" y1="81.4361" x2="269.1623" y2="149.243">
	<stop  offset="0" style="stop-color:#FBAF2C"/>
	<stop  offset="1" style="stop-color:#F8983A"/>
</linearGradient>
<polygon class="st1" points="309.2,64.7 309.2,64.7 208.5,94.8 208.5,94.8 107.8,125 107.8,198 208.5,167.8 208.5,167.8 
	309.1,137.7 309.1,137.7 409.8,107.6 409.8,34.6 "/>
<path class="st2" d="M153,93.1c0,9.3-20.7,16.8-46.3,16.8c-25.5,0-46.3-7.5-46.3-16.8c0-9.3,20.7-16.8,46.3-16.8
	C132.3,76.3,153,83.8,153,93.1z"/>
<g>
	<g>
		<g class="st3">
			<defs>
				<polygon id="SVGID_4_" class="st3" points="151.8,161.6 151.4,129.3 386.5,57.8 387,90.2 				"/>
			</defs>
			<clipPath id="SVGID_5_">
				<use xlink:href="#SVGID_4_"  style="overflow:visible;"/>
			</clipPath>
			<g class="st4">
				<g>
					<g>
						<g>
							<polyline class="st5" points="171.4,123.5 164.7,125.5 161.7,144.7 161.6,144.8 158.1,127.5 151.4,129.5 151.7,155.4 
								155.9,154.1 155.6,133.5 155.7,133.5 160,152.9 163.5,151.8 167.2,130 167.3,129.9 167.6,150.6 171.7,149.3 171.4,123.5 
															"/>
							<path class="st5" d="M178.4,135.3l0-0.8c0-1.1,0.1-2.1,0.5-2.9c0.3-0.9,0.9-1.4,1.7-1.6c0.8-0.3,1.4-0.1,1.7,0.6
								c0.3,0.6,0.5,1.8,0.6,3.4L178.4,135.3 M180.7,126.5c-1.1,0.3-2.1,0.8-2.9,1.5c-0.8,0.6-1.5,1.3-1.9,2
								c-0.5,0.7-0.8,1.6-1.1,2.6c-0.3,1-0.4,2-0.5,2.9c-0.1,0.9-0.1,2-0.1,3.1c0,0.9,0,1.6,0.1,2.1c0,0.6,0.1,1.2,0.2,2
								c0.1,0.8,0.2,1.4,0.4,1.9c0.2,0.5,0.4,0.9,0.8,1.4c0.3,0.5,0.7,0.8,1.2,1c0.5,0.2,1,0.3,1.7,0.3c0.7,0,1.5-0.1,2.4-0.4
								c2-0.6,3.5-1.7,4.5-3.1s1.5-3.4,1.5-5.7l-3.9,1.2c-0.1,1.3-0.3,2.3-0.7,3c-0.3,0.7-0.9,1.1-1.6,1.3c-0.8,0.2-1.3,0-1.7-0.8
								c-0.3-0.8-0.5-1.8-0.6-3.1l0-1.6l8.6-2.6l0-1.1c0-3.3-0.5-5.6-1.4-7C184.7,126.1,183.1,125.8,180.7,126.5"/>
							<path class="st5" d="M195.6,138.7c-0.9,0.3-1.5,0-1.8-1c-0.3-0.9-0.5-2.5-0.5-4.8c0-2.3,0.1-3.9,0.4-5
								c0.3-1.1,0.9-1.8,1.8-2.1c0.9-0.3,1.5,0,1.9,0.9c0.3,0.9,0.5,2.5,0.5,4.8c0,2.3-0.1,3.9-0.4,5.1
								C197.2,137.7,196.5,138.4,195.6,138.7 M202,114.2l-4.4,1.3l0.1,8.2l-0.1,0c-0.9-1.3-2.2-1.7-3.7-1.2
								c-1.8,0.5-3.1,1.7-3.9,3.6c-0.8,1.9-1.2,4.6-1.1,8.2c0.1,3.6,0.5,6,1.4,7.4c0.9,1.3,2.2,1.7,4,1.2c0.9-0.3,1.7-0.7,2.2-1.2
								c0.6-0.5,1.1-1.3,1.6-2.4l0.1,0l0,2.1l4.2-1.3L202,114.2"/>
							<path class="st5" d="M209.5,118.3l-4.4,1.3l0.3,19.5l4.4-1.3L209.5,118.3 M209.4,111.6L205,113l0.1,4.3l4.4-1.3L209.4,111.6"
								/>
							<path class="st5" d="M218.8,115c-2.2,0.7-3.9,2-5.1,3.8c-1.2,1.9-1.7,4.7-1.7,8.5c0.1,3.8,0.6,6.3,1.7,7.5
								c1.1,1.2,2.7,1.4,5,0.7c2.3-0.7,3.9-1.8,4.9-3.5c1-1.6,1.5-3.7,1.5-6.4l-4.2,1.3c0,1.6-0.1,2.8-0.5,3.6
								c-0.3,0.8-0.9,1.3-1.6,1.6c-0.9,0.3-1.6,0-1.9-1c-0.3-0.9-0.5-2.6-0.5-5.1c0-2.4,0.1-4.2,0.4-5.3c0.3-1.1,1-1.8,2-2.1
								c1.3-0.4,2,0.7,2,3.3l4.2-1.3c0-2.4-0.6-4.1-1.6-5.1C222.3,114.6,220.8,114.4,218.8,115"/>
							<path class="st5" d="M232.6,127.9c-0.5,0.2-1,0-1.2-0.4c-0.3-0.4-0.4-1-0.4-1.8c0-0.9,0.2-1.6,0.6-2.2c0.4-0.6,1-1.2,1.9-1.7
								c0.7-0.4,1.3-0.9,1.9-1.5l0.1,3.8c0,1-0.3,1.8-0.8,2.5C233.9,127.3,233.3,127.7,232.6,127.9 M233.1,110.6
								c-1.8,0.5-3.2,1.5-4.3,2.7c-1.1,1.3-1.6,3-1.6,5.1l0,0.5l3.9-1.2l0-0.5c0-1.7,0.6-2.7,2-3.1c1.3-0.4,2,0.2,2.1,1.8
								c0,0.6-0.1,1.2-0.4,1.6c-0.2,0.4-0.7,0.8-1.3,1.2l-2.4,1.5c-1.5,1-2.6,2-3.3,3.1c-0.6,1.1-0.9,2.5-0.9,4.3
								c0,1.5,0.4,2.7,1,3.6c0.7,0.9,1.7,1.1,3.1,0.6c1.1-0.3,2-0.8,2.6-1.3c0.6-0.5,1.2-1.3,1.6-2.4l0.1,0c0.2,0.9,0.4,1.5,0.6,1.9
								l4.2-1.3c-0.4-0.9-0.6-2.1-0.6-3.6l-0.1-10.2c0-2-0.5-3.3-1.3-4.1C237.1,109.9,235.5,109.9,233.1,110.6"/>
							<path class="st5" d="M246.8,107l-4.4,1.3l0.3,19.5l4.4-1.3L246.8,107 M246.7,100.3l-4.4,1.3l0.1,4.3l4.4-1.3L246.7,100.3"/>
							<path class="st5" d="M256.3,120.3c-0.9,0.3-1.5,0-1.8-1c-0.3-0.9-0.5-2.5-0.5-4.8c0-2.3,0.1-3.9,0.4-5
								c0.3-1.1,0.9-1.8,1.8-2.1c0.9-0.3,1.5,0,1.9,0.9c0.3,0.9,0.5,2.5,0.5,4.8c0,2.3-0.1,3.9-0.4,5.1
								C257.8,119.3,257.2,120,256.3,120.3 M262.7,95.7l-4.4,1.3l0.1,8.2l-0.1,0c-0.9-1.3-2.2-1.7-3.7-1.2c-1.8,0.5-3.1,1.7-3.9,3.6
								c-0.8,1.9-1.2,4.6-1.2,8.2c0.1,3.6,0.5,6,1.4,7.4c0.9,1.3,2.2,1.7,4,1.2c0.9-0.3,1.7-0.7,2.2-1.2c0.6-0.5,1.1-1.3,1.6-2.4
								l0.1,0l0,2.1l4.2-1.3L262.7,95.7"/>
							<path class="st5" d="M278.5,107.1l2-12.3l0.1,0l2.3,11L278.5,107.1 M283.3,89.5l-5.6,1.7l-5.6,27.6l4.7-1.4l1-5.8l6-1.8
								l1.1,5.1l4.7-1.4L283.3,89.5"/>
							<path class="st5" d="M299.3,90.5c-2,0.6-3.4,2-4.3,4.1l-0.1,0l0-2.3l-4.2,1.3l0.3,19.5l4.4-1.3l-0.2-12.9
								c0-2.1,0.7-3.5,2.3-3.9c0.7-0.2,1.1-0.1,1.4,0.2c0.3,0.3,0.5,1,0.5,2l0.2,13.4l4.4-1.3l-0.2-14.4
								C303.7,91,302.2,89.6,299.3,90.5"/>
							<path class="st5" d="M312,103.8c-0.5,0.2-1,0-1.2-0.4c-0.3-0.4-0.4-1-0.4-1.8c0-0.9,0.2-1.6,0.6-2.2c0.4-0.6,1-1.2,1.9-1.7
								c0.7-0.4,1.4-0.9,1.9-1.5l0.1,3.8c0,1-0.2,1.8-0.8,2.5C313.3,103.1,312.7,103.6,312,103.8 M312.5,86.5
								c-1.8,0.5-3.2,1.5-4.3,2.7c-1.1,1.3-1.6,3-1.6,5.1l0,0.5l3.9-1.2l0-0.5c0-1.7,0.6-2.7,2-3.1c1.3-0.4,2,0.2,2.1,1.8
								c0,0.6-0.1,1.2-0.4,1.6c-0.2,0.4-0.7,0.8-1.3,1.2l-2.4,1.5c-1.5,1-2.6,2-3.3,3.1c-0.6,1.1-0.9,2.5-0.9,4.3
								c0,1.5,0.4,2.7,1.1,3.6c0.7,0.9,1.7,1.1,3.1,0.7c1.1-0.3,2-0.8,2.6-1.3c0.6-0.5,1.2-1.3,1.6-2.4l0.1,0
								c0.2,0.9,0.4,1.5,0.6,1.9l4.2-1.3c-0.4-0.9-0.6-2.1-0.6-3.6l-0.1-10.2c0-2-0.5-3.3-1.3-4.1C316.5,85.8,314.9,85.8,312.5,86.5
								"/>
							<polyline class="st5" points="326.1,76.5 321.8,77.8 322.1,103.6 326.5,102.3 326.1,76.5 							"/>
							<path class="st5" d="M341.7,78.1l-4.4,1.3l-2,14.1l-0.1,0l-2.7-12.7l-4.5,1.4l5,18c-0.1,1.8-0.9,2.9-2.3,3.4
								c-0.4,0.1-0.8,0.2-1.1,0.2l0.1,3.7l1.8-0.5c1.4-0.4,2.5-0.9,3.2-1.5c0.7-0.6,1.3-1.5,1.8-2.7s1-3,1.4-5.4L341.7,78.1"/>
							<path class="st5" d="M348.5,70.5l-4.4,1.3l0.1,5.6L342,78l0,3.4l2.2-0.7l0.2,11.1c0,2,0.3,3.3,0.8,3.8c0.5,0.5,1.6,0.5,3.3,0
								c0.3-0.1,0.8-0.3,1.4-0.5c0.6-0.2,1.1-0.4,1.4-0.5l0-3.5c-0.4,0.2-0.7,0.3-1,0.4c-0.6,0.2-1,0.1-1.2-0.1
								c-0.2-0.3-0.3-0.8-0.3-1.6l-0.2-10.5l2.5-0.8l0-3.4l-2.5,0.8L348.5,70.5"/>
							<path class="st5" d="M357.1,73.4l-4.4,1.3l0.3,19.5l4.4-1.3L357.1,73.4 M357,66.8l-4.4,1.3l0.1,4.3l4.4-1.3L357,66.8"/>
							<path class="st5" d="M366.4,70.1c-2.2,0.7-3.9,2-5.1,3.8c-1.2,1.9-1.7,4.7-1.7,8.5c0.1,3.8,0.6,6.3,1.7,7.5
								c1.1,1.2,2.7,1.4,5,0.7c2.3-0.7,3.9-1.8,4.9-3.5c1-1.6,1.5-3.7,1.4-6.4l-4.2,1.3c0,1.6-0.1,2.8-0.5,3.6
								c-0.3,0.8-0.9,1.3-1.6,1.6c-0.9,0.3-1.6,0-1.9-1s-0.5-2.6-0.6-5.1c0-2.4,0.1-4.2,0.4-5.3c0.3-1.1,1-1.8,2-2.1
								c1.3-0.4,2,0.7,2,3.3l4.2-1.3c0-2.4-0.6-4.1-1.6-5.1C369.9,69.7,368.4,69.5,366.4,70.1"/>
							<path class="st5" d="M380.4,65.9c-2.1,0.6-3.7,1.7-4.7,3.1c-1,1.4-1.5,3-1.5,4.7c0,2.6,1.3,4.1,3.7,4.3l3.1,0.3
								c1.1,0.2,1.6,0.7,1.6,1.7c0,1.5-0.7,2.5-2.2,3c-0.7,0.2-1.3,0.1-1.7-0.2c-0.4-0.4-0.6-1-0.6-1.9l0-0.7l-3.9,1.2l0,0.7
								c0,2.1,0.5,3.4,1.4,4.2c0.9,0.7,2.6,0.7,4.9,0c1.9-0.6,3.5-1.5,4.6-2.9c1.1-1.3,1.7-3,1.6-5c0-1.5-0.3-2.5-0.9-3.2
								c-0.6-0.7-1.6-1.1-2.9-1.2l-2.6-0.2c-1.3-0.1-1.9-0.6-1.9-1.7c0-0.7,0.2-1.3,0.6-1.7c0.4-0.5,0.9-0.8,1.5-1
								c0.7-0.2,1.2-0.1,1.5,0.2c0.3,0.4,0.5,1.1,0.5,2.1l3.9-1.2l0-0.8C386.3,65.9,384.3,64.7,380.4,65.9"/>
						</g>
					</g>
				</g>
			</g>
		</g>
	</g>
</g>
<polygon class="st6" points="409.8,34.6 302.2,2.4 201.7,32.5 201.8,32.5 101.3,62.5 101.7,62.6 101.3,62.5 0.9,92.6 108.5,124.8 
	220.5,91.2 220.5,91.2 "/>
<g>
	<path class="st2" d="M154,99c0,9.2-20.7,16.7-46.2,16.7c-25.5,0-46.2-7.5-46.2-16.7c0-9.3,20.7-16.8,46.2-16.8
		C133.3,82.2,154,89.7,154,99z"/>
	<rect x="61.7" y="78.4" class="st2" width="92.3" height="20.5"/>
	<path class="st6" d="M154,78.4c0,9.3-20.7,16.8-46.2,16.8c-25.5,0-46.2-7.5-46.2-16.8c0-9.2,20.7-16.8,46.2-16.8
		C133.3,61.7,154,69.2,154,78.4z"/>
</g>
<g>
	<path class="st2" d="M257,69.7c0,9.2-20.7,16.7-46.2,16.7c-25.5,0-46.2-7.5-46.2-16.7c0-9.3,20.7-16.8,46.2-16.8
		C236.3,53,257,60.5,257,69.7z"/>
	<rect x="164.6" y="49.2" class="st2" width="92.3" height="20.5"/>
	<path class="st6" d="M257,49.2c0,9.3-20.7,16.8-46.2,16.8c-25.5,0-46.2-7.5-46.2-16.8c0-9.2,20.7-16.8,46.2-16.8
		C236.3,32.4,257,39.9,257,49.2z"/>
</g>
<g>
	<path class="st2" d="M360.9,37.3c0,9.2-20.7,16.7-46.2,16.7c-25.5,0-46.2-7.5-46.2-16.7c0-9.3,20.7-16.8,46.2-16.8
		C340.2,20.5,360.9,28,360.9,37.3z"/>
	<rect x="268.6" y="16.8" class="st2" width="92.3" height="20.5"/>
	<path class="st6" d="M360.9,16.8c0,9.3-20.7,16.8-46.2,16.8c-25.5,0-46.2-7.5-46.2-16.8c0-9.2,20.7-16.8,46.2-16.8
		C340.2,0,360.9,7.5,360.9,16.8z"/>
</g>
</svg>
