<?xml version="1.0" encoding="utf-8"?>
<!-- Generator: Adobe Illustrator 19.2.1, SVG Export Plug-In . SVG Version: 6.00 Build 0)  -->
<svg version="1.1" id="Layer_1" xmlns="http://www.w3.org/2000/svg" xmlns:xlink="http://www.w3.org/1999/xlink" x="0px" y="0px"
	 viewBox="0 0 409.8 200.6" style="enable-background:new 0 0 409.8 200.6;" xml:space="preserve">
<style type="text/css">
	.Drop_x0020_Shadow{fill:none;}
	.Round_x0020_Corners_x0020_2_x0020_pt{fill:#FFFFFF;stroke:#000000;stroke-miterlimit:10;}
	.Live_x0020_Reflect_x0020_X{fill:none;}
	.Bevel_x0020_Soft{fill:url(#SVGID_1_);}
	.Dusk{fill:#FFFFFF;}
	.Foliage_GS{fill:#FFDD00;}
	.Pompadour_GS{fill-rule:evenodd;clip-rule:evenodd;fill:#44ADE2;}
	.st0{fill:#E58825;}
	.st1{fill:url(#SVGID_2_);}
	.st2{fill:#00B6D5;}
	.st3{fill:#00A7CE;}
	.st4{fill:#42C2CA;}
	.st5{enable-background:new    ;}
	.st6{clip-path:url(#SVGID_4_);}
	.st7{fill:#FFFFFF;}
</style>
<linearGradient id="SVGID_1_" gradientUnits="userSpaceOnUse" x1="-14.888" y1="6.4787" x2="-14.1809" y2="7.1858">
	<stop  offset="0" style="stop-color:#DEDFE3"/>
	<stop  offset="0.1738" style="stop-color:#D8D9DD"/>
	<stop  offset="0.352" style="stop-color:#C9CACD"/>
	<stop  offset="0.5323" style="stop-color:#B4B5B8"/>
	<stop  offset="0.7139" style="stop-color:#989A9C"/>
	<stop  offset="0.8949" style="stop-color:#797C7E"/>
	<stop  offset="1" style="stop-color:#656B6C"/>
</linearGradient>
<polygon class="st0" points="409.8,109.4 302,77.1 201.3,107.2 201.3,107.2 100.7,137.3 101.1,137.5 100.7,137.4 0,167.5 
	107.8,199.7 220.1,166.1 220.1,166.1 "/>
<linearGradient id="SVGID_2_" gradientUnits="userSpaceOnUse" x1="61.8442" y1="114.0252" x2="46.3661" y2="182.3512">
	<stop  offset="0" style="stop-color:#42C2CA"/>
	<stop  offset="1" style="stop-color:#00B6D5"/>
</linearGradient>
<polygon class="st1" points="107.9,200.6 0.3,168.5 0.3,95.6 107.9,127.8 "/>
<polygon class="st2" points="409.3,37.6 301.6,5.4 201.2,35.5 201.2,35.5 100.8,65.5 101.2,65.7 100.8,65.6 0.3,95.6 107.9,127.8 
	220,94.3 219.9,94.3 "/>
<polygon class="st3" points="308.8,67.7 308.8,67.7 208.4,97.7 208.4,97.7 107.9,127.8 107.9,200.6 208.4,170.6 208.4,170.6 
	308.8,140.5 308.8,140.5 409.3,110.4 409.3,37.6 "/>
<g>
	<path class="st3" d="M360.9,37.3c0,9.2-20.7,16.7-46.2,16.7c-25.5,0-46.2-7.5-46.2-16.7c0-9.3,20.7-16.8,46.2-16.8
		C340.2,20.5,360.9,28,360.9,37.3z"/>
	<rect x="268.6" y="16.8" class="st3" width="92.3" height="20.5"/>
	<path class="st4" d="M360.9,16.8c0,9.3-20.7,16.8-46.2,16.8c-25.5,0-46.2-7.5-46.2-16.8c0-9.2,20.7-16.8,46.2-16.8
		C340.2,0,360.9,7.5,360.9,16.8z"/>
</g>
<g>
	<path class="st3" d="M149.5,96.5c0,9.2-20.7,16.7-46.2,16.7c-25.5,0-46.2-7.5-46.2-16.7c0-9.3,20.7-16.8,46.2-16.8
		C128.8,79.8,149.5,87.3,149.5,96.5z"/>
	<rect x="57.2" y="76" class="st3" width="92.3" height="20.5"/>
	<path class="st4" d="M149.5,76c0,9.3-20.7,16.8-46.2,16.8c-25.5,0-46.2-7.5-46.2-16.8c0-9.2,20.7-16.8,46.2-16.8
		C128.8,59.2,149.5,66.7,149.5,76z"/>
</g>
<path class="st3" d="M261.6,64.3c0,9.2-20.7,16.7-46.2,16.7c-25.5,0-46.2-7.5-46.2-16.7c0-9.3,20.7-16.8,46.2-16.8
	C240.9,47.6,261.6,55.1,261.6,64.3z"/>
<rect x="169.3" y="43.8" class="st3" width="92.3" height="20.5"/>
<path class="st4" d="M261.6,43.8c0,9.3-20.7,16.8-46.2,16.8c-25.5,0-46.2-7.5-46.2-16.8c0-9.2,20.7-16.8,46.2-16.8
	C240.9,27,261.6,34.5,261.6,43.8z"/>
<g>
	<g>
		<g class="st5">
			<defs>
				<polygon id="SVGID_3_" class="st5" points="121.5,175.6 121,143 402.1,57.6 402.6,90.2 				"/>
			</defs>
			<clipPath id="SVGID_4_">
				<use xlink:href="#SVGID_3_"  style="overflow:visible;"/>
			</clipPath>
			<g class="st6">
				<g>
					<g>
						<g>
							<path class="st7" d="M129,163.7c-1.3,0.4-2.1,0-2.6-1.3c-0.4-1.2-0.7-3.7-0.7-7.4c-0.1-3.6,0.1-6.2,0.5-7.7
								c0.4-1.5,1.2-2.4,2.5-2.8s2.1,0,2.6,1.3c0.4,1.2,0.7,3.7,0.7,7.3c0.1,3.7-0.1,6.2-0.5,7.7C131.1,162.3,130.3,163.3,129,163.7
								 M128.7,140.6c-1.3,0.4-2.5,1-3.4,1.7c-0.9,0.7-1.7,1.5-2.2,2.4c-0.5,0.9-0.9,2-1.2,3.3c-0.3,1.3-0.5,2.6-0.5,3.8
								c-0.1,1.2-0.1,2.7-0.1,4.5c0,1.8,0.1,3.2,0.2,4.4c0.1,1.2,0.3,2.3,0.6,3.4c0.3,1.1,0.8,1.9,1.3,2.5c0.5,0.5,1.3,0.9,2.3,1
								c1,0.1,2.1,0,3.4-0.4s2.5-1,3.4-1.7c0.9-0.7,1.7-1.5,2.2-2.4c0.5-0.9,1-2,1.2-3.2c0.3-1.3,0.5-2.6,0.6-3.8
								c0.1-1.2,0.1-2.8,0.1-4.5c0-1.8-0.1-3.2-0.2-4.4c-0.1-1.2-0.3-2.3-0.7-3.4c-0.3-1.1-0.8-2-1.3-2.5c-0.6-0.6-1.3-0.9-2.3-1.1
								C131.1,140.1,130,140.2,128.7,140.6"/>
							<path class="st7" d="M145.9,158.5c-0.9,0.3-1.5,0-1.9-0.9c-0.3-0.9-0.5-2.5-0.5-4.8s0.1-3.9,0.4-5c0.3-1.1,0.9-1.8,1.8-2.1
								c0.9-0.3,1.5,0,1.8,1c0.3,0.9,0.5,2.5,0.5,4.8c0,2.3-0.1,3.9-0.4,5C147.4,157.6,146.8,158.3,145.9,158.5 M147.1,141.5
								c-0.9,0.3-1.6,0.7-2.2,1.3c-0.6,0.6-1.1,1.4-1.6,2.5l-0.1,0l0-2.1l-4.2,1.3l0.4,25.7l4.4-1.3l-0.1-8.1l0.1,0
								c0.9,1.2,2.1,1.6,3.7,1.1c1.8-0.5,3.1-1.7,3.9-3.6c0.8-1.8,1.2-4.5,1.1-8.1c-0.1-3.6-0.5-6.1-1.4-7.4
								C150.2,141.3,148.8,140.9,147.1,141.5"/>
							<path class="st7" d="M158.6,146l0-0.8c0-1.1,0.1-2.1,0.5-2.9c0.3-0.9,0.9-1.4,1.7-1.6c0.8-0.3,1.4-0.1,1.7,0.6
								c0.3,0.6,0.5,1.8,0.6,3.4L158.6,146 M160.9,137.3c-1.1,0.3-2.1,0.8-2.9,1.5c-0.8,0.6-1.5,1.3-2,2c-0.5,0.7-0.8,1.6-1.1,2.6
								c-0.3,1-0.4,2-0.5,2.9c-0.1,0.9-0.1,2-0.1,3.1c0,0.9,0,1.6,0.1,2.1c0,0.6,0.1,1.2,0.2,2c0.1,0.8,0.3,1.4,0.4,1.9
								c0.2,0.5,0.4,0.9,0.8,1.4c0.3,0.5,0.7,0.8,1.2,1c0.5,0.2,1,0.3,1.7,0.3c0.7,0,1.5-0.1,2.4-0.4c2-0.6,3.6-1.7,4.5-3.1
								c1-1.5,1.5-3.4,1.5-5.7l-3.9,1.2c-0.1,1.3-0.3,2.3-0.7,3c-0.3,0.7-0.9,1.1-1.6,1.3c-0.8,0.2-1.3,0-1.7-0.8s-0.5-1.8-0.6-3.1
								l0-1.6l8.6-2.6l0-1.1c0-3.3-0.5-5.6-1.4-7C164.9,136.9,163.2,136.5,160.9,137.3"/>
							<path class="st7" d="M177.5,132.2c-1.6,0.5-2.9,1.9-3.9,4.3l-0.1,0l0-2.6l-4.2,1.3l0.3,19.5l4.4-1.3l-0.2-11.7
								c0-1.2,0.3-2.2,0.9-2.9c0.6-0.8,1.4-1.3,2.3-1.5c0.3-0.1,0.7-0.2,1.4-0.3l-0.1-4.8C177.9,132.1,177.7,132.2,177.5,132.2"/>
							<path class="st7" d="M185.3,147c-0.5,0.2-1,0-1.2-0.4c-0.3-0.4-0.4-1-0.4-1.8c0-0.9,0.2-1.6,0.6-2.2c0.4-0.6,1-1.2,1.9-1.7
								c0.7-0.4,1.4-0.9,1.9-1.5l0.1,3.8c0,1-0.2,1.8-0.8,2.5C186.7,146.3,186,146.8,185.3,147 M185.8,129.7
								c-1.8,0.5-3.2,1.4-4.3,2.7c-1.1,1.3-1.6,3-1.6,5.1l0,0.5l3.9-1.2l0-0.5c0-1.7,0.6-2.7,2-3.1c1.3-0.4,2,0.2,2.1,1.8
								c0,0.6-0.1,1.2-0.4,1.6c-0.2,0.4-0.7,0.8-1.3,1.2l-2.4,1.5c-1.5,1-2.6,2-3.3,3.1c-0.6,1.1-0.9,2.5-0.9,4.3
								c0,1.5,0.4,2.7,1.1,3.6c0.7,0.9,1.7,1.1,3.1,0.7c1.1-0.3,2-0.8,2.6-1.3c0.6-0.5,1.2-1.3,1.6-2.4l0.1,0
								c0.2,0.9,0.4,1.5,0.6,1.9l4.2-1.3c-0.4-0.9-0.6-2.1-0.6-3.6l-0.1-10.2c0-2-0.5-3.3-1.3-4.1C189.8,129,188.2,129,185.8,129.7"
								/>
							<path class="st7" d="M200.3,120.2l-4.4,1.3l0.1,5.6l-2.2,0.7l0,3.4l2.2-0.7l0.2,11.2c0,2,0.3,3.3,0.8,3.8
								c0.5,0.5,1.6,0.5,3.3,0c0.3-0.1,0.8-0.3,1.4-0.5c0.6-0.2,1.1-0.4,1.4-0.5l0-3.5c-0.4,0.2-0.7,0.3-1,0.4
								c-0.6,0.2-1,0.2-1.2-0.1c-0.2-0.3-0.3-0.8-0.3-1.6l-0.2-10.5l2.5-0.8l0-3.4l-2.5,0.8L200.3,120.2"/>
							<path class="st7" d="M208.9,123.2l-4.4,1.3l0.3,19.5l4.4-1.3L208.9,123.2 M208.8,116.5l-4.4,1.3l0.1,4.3l4.4-1.3L208.8,116.5
								"/>
							<path class="st7" d="M218.3,137c-0.5,0.2-1,0.1-1.3-0.1c-0.3-0.2-0.6-0.6-0.7-1.3c-0.2-0.6-0.3-1.3-0.3-2
								c-0.1-0.7-0.1-1.6-0.1-2.8c0-1.2,0-2.1,0-2.8c0-0.7,0.1-1.4,0.3-2.2c0.1-0.7,0.4-1.3,0.7-1.7c0.3-0.4,0.7-0.7,1.3-0.9
								c0.9-0.3,1.5,0.1,1.8,1c0.4,0.9,0.6,2.6,0.6,5.1c0,2.5-0.1,4.3-0.4,5.4C219.8,136,219.2,136.7,218.3,137 M218.3,119.8
								c-0.1,0-0.1,0-0.2,0.1c-2.4,0.7-4.1,2.1-5.1,4.1c-1,2-1.5,4.7-1.4,8.2c0.1,3.6,0.6,6,1.6,7.3c1,1.3,2.7,1.6,5.1,0.8
								c0.1,0,0.1,0,0.2-0.1c2.4-0.7,4.1-2.1,5.1-4c1-1.9,1.5-4.7,1.4-8.1c-0.1-3.6-0.6-6-1.6-7.4
								C222.3,119.4,220.7,119.1,218.3,119.8"/>
							<path class="st7" d="M235.6,114.6c-2,0.6-3.4,2-4.3,4.1l-0.1,0l0-2.3l-4.2,1.3l0.3,19.5l4.4-1.3l-0.2-12.9
								c0-2.1,0.7-3.5,2.3-3.9c0.7-0.2,1.1-0.1,1.4,0.2c0.3,0.3,0.5,1,0.5,2l0.2,13.4l4.4-1.3l-0.2-14.4
								C240,115.1,238.5,113.7,235.6,114.6"/>
							<path class="st7" d="M248.3,127.8c-0.5,0.2-1,0-1.2-0.4c-0.3-0.4-0.4-1-0.4-1.8c0-0.9,0.2-1.6,0.6-2.2c0.4-0.6,1-1.2,1.9-1.7
								c0.7-0.4,1.4-0.9,1.9-1.5l0.1,3.8c0,1-0.2,1.8-0.8,2.5C249.6,127.2,249,127.6,248.3,127.8 M248.8,110.6
								c-1.8,0.5-3.2,1.5-4.3,2.7c-1.1,1.3-1.6,3-1.6,5.1l0,0.5l3.9-1.2l0-0.5c0-1.7,0.6-2.7,2-3.1c1.3-0.4,2,0.2,2.1,1.8
								c0,0.6-0.1,1.2-0.4,1.6c-0.2,0.4-0.7,0.8-1.3,1.2l-2.4,1.5c-1.5,1-2.6,2-3.3,3.1c-0.6,1.1-0.9,2.5-0.9,4.3
								c0,1.5,0.4,2.7,1.1,3.6c0.7,0.9,1.7,1.1,3.1,0.7c1.1-0.3,2-0.8,2.6-1.3c0.6-0.5,1.2-1.3,1.6-2.4l0.1,0
								c0.2,0.9,0.4,1.5,0.6,1.9l4.2-1.3c-0.4-0.9-0.6-2.1-0.6-3.6l-0.1-10.2c0-2-0.5-3.3-1.3-4.1
								C252.8,109.8,251.2,109.8,248.8,110.6"/>
							<polyline class="st7" points="262.4,100.5 258.1,101.8 258.5,127.7 262.8,126.4 262.4,100.5 							"/>
							<path class="st7" d="M278.3,117.8L278,99.6l1.9-0.6c1.6-0.5,2.7-0.1,3.2,1.1c0.5,1.2,0.8,3.4,0.8,6.6
								c0.1,3.6-0.2,6.1-0.6,7.6c-0.5,1.4-1.5,2.4-3,2.9L278.3,117.8 M280.9,94.9l-7.4,2.3l0.4,25.8l7.2-2.2c2.9-0.9,4.9-2.5,6-4.9
								c1.1-2.4,1.6-6,1.5-10.7c0-2.1-0.1-3.8-0.4-5.1c-0.2-1.4-0.6-2.5-1.1-3.5c-0.5-1-1.3-1.6-2.3-1.9
								C283.7,94.4,282.4,94.5,280.9,94.9"/>
							<path class="st7" d="M296.7,113.1c-0.5,0.2-1,0-1.2-0.4c-0.3-0.4-0.4-1-0.4-1.8c0-0.9,0.2-1.6,0.6-2.2c0.4-0.6,1-1.2,1.9-1.7
								c0.7-0.4,1.4-0.9,1.9-1.5l0.1,3.8c0,1-0.2,1.8-0.8,2.5C298.1,112.5,297.4,112.9,296.7,113.1 M297.2,95.9
								c-1.8,0.5-3.2,1.5-4.3,2.7c-1.1,1.3-1.6,3-1.6,5.1l0,0.5l3.9-1.2l0-0.5c0-1.7,0.6-2.7,2-3.1c1.3-0.4,2,0.2,2.1,1.8
								c0,0.6-0.1,1.2-0.4,1.6c-0.2,0.4-0.7,0.8-1.3,1.2l-2.4,1.5c-1.5,1-2.6,2-3.3,3.1c-0.6,1.1-0.9,2.5-0.9,4.3
								c0,1.5,0.4,2.7,1.1,3.6c0.7,0.9,1.7,1.1,3.1,0.7c1.1-0.3,2-0.8,2.6-1.3c0.6-0.5,1.2-1.3,1.6-2.4l0.1,0
								c0.2,0.9,0.4,1.5,0.6,1.9l4.2-1.3c-0.4-0.9-0.6-2.1-0.6-3.6l-0.1-10.2c0-2-0.5-3.3-1.3-4.1C301.2,95.1,299.6,95.1,297.2,95.9
								"/>
							<path class="st7" d="M311.7,86.4l-4.4,1.3l0.1,5.6l-2.2,0.7l0,3.4l2.2-0.7l0.2,11.2c0,2,0.3,3.3,0.8,3.8
								c0.5,0.5,1.6,0.5,3.3,0c0.3-0.1,0.8-0.3,1.4-0.5c0.6-0.2,1.1-0.4,1.4-0.5l0-3.5c-0.4,0.2-0.7,0.3-1,0.4
								c-0.6,0.2-1,0.2-1.2-0.1c-0.2-0.3-0.3-0.8-0.3-1.6l-0.2-10.5l2.5-0.8l0-3.4l-2.5,0.8L311.7,86.4"/>
							<path class="st7" d="M321.3,105.7c-0.6,0.2-1,0-1.2-0.4c-0.3-0.4-0.4-1-0.4-1.8c0-0.9,0.2-1.6,0.6-2.2c0.4-0.6,1-1.2,1.9-1.7
								c0.7-0.4,1.3-0.9,1.8-1.5l0.1,3.8c0,1-0.2,1.8-0.8,2.5C322.6,105,322,105.5,321.3,105.7 M321.7,88.4
								c-1.8,0.5-3.2,1.5-4.3,2.7c-1.1,1.3-1.6,3-1.6,5.1l0,0.5l3.9-1.2l0-0.5c0-1.7,0.6-2.7,2-3.1c1.3-0.4,2,0.2,2.1,1.8
								c0,0.6-0.1,1.2-0.4,1.6c-0.2,0.4-0.7,0.8-1.3,1.2l-2.5,1.5c-1.5,1-2.6,2-3.3,3.1c-0.6,1.1-0.9,2.5-0.9,4.3
								c0,1.5,0.4,2.7,1.1,3.6c0.7,0.9,1.7,1.1,3.1,0.7c1.1-0.3,2-0.8,2.6-1.3c0.6-0.5,1.2-1.3,1.6-2.4l0.1,0
								c0.2,0.9,0.4,1.5,0.6,1.9l4.2-1.3c-0.4-0.9-0.6-2.1-0.6-3.6l-0.1-10.2c0-2-0.5-3.3-1.3-4.1C325.7,87.7,324.1,87.7,321.7,88.4
								"/>
							<path class="st7" d="M345,74.9c-2.2,0.7-3.9,1.8-5.1,3.5c-1.2,1.7-1.8,3.7-1.7,6.2c0,2.1,0.5,3.6,1.5,4.4
								c0.9,0.9,2.5,1.4,4.5,1.6c1.6,0.1,2.6,0.4,3.2,0.8c0.6,0.4,0.9,1.2,0.9,2.4c0,1-0.2,1.9-0.8,2.6c-0.5,0.7-1.2,1.2-1.9,1.4
								c-1.1,0.3-1.9,0.3-2.4-0.3c-0.4-0.5-0.7-1.5-0.7-2.8l0-0.8l-4.5,1.4l0,1.1c0,2.5,0.6,4.1,1.8,5c1.2,0.9,3,1,5.5,0.2
								c5.2-1.6,7.8-5,7.7-10.2c0-1.7-0.4-2.9-1-3.8c-0.6-0.8-1.8-1.4-3.4-1.8l-3.5-0.7c-0.9-0.2-1.5-0.5-1.9-0.9
								c-0.3-0.4-0.5-1.1-0.5-1.9c0-2,0.8-3.3,2.5-3.8c1.6-0.5,2.5,0.5,2.5,3.1l4.4-1.3l0-0.7c0-2.4-0.7-3.9-2-4.7
								C348.8,74.3,347.1,74.3,345,74.9"/>
							<path class="st7" d="M360.1,71.6l-4.4,1.3l0.1,5.6l-2.2,0.7l0,3.4l2.2-0.7l0.2,11.2c0,2,0.3,3.3,0.8,3.8
								c0.5,0.5,1.6,0.5,3.3,0c0.3-0.1,0.8-0.3,1.4-0.5c0.6-0.2,1.1-0.4,1.4-0.5l0-3.5c-0.4,0.2-0.7,0.3-1,0.4
								c-0.6,0.2-1,0.1-1.2-0.1c-0.2-0.3-0.3-0.8-0.3-1.6l-0.2-10.5l2.5-0.8l0-3.4l-2.5,0.8L360.1,71.6"/>
							<path class="st7" d="M370.6,90.7c-0.5,0.2-1,0.1-1.3-0.1c-0.3-0.2-0.6-0.6-0.7-1.3s-0.3-1.3-0.3-2c-0.1-0.7-0.1-1.6-0.1-2.8
								c0-1.2,0-2.1,0-2.8c0-0.7,0.1-1.4,0.3-2.2c0.1-0.7,0.4-1.3,0.7-1.7c0.3-0.4,0.7-0.7,1.3-0.9c0.9-0.3,1.5,0.1,1.8,1
								c0.4,0.9,0.6,2.6,0.6,5.1c0,2.5-0.1,4.3-0.4,5.4C372,89.7,371.4,90.4,370.6,90.7 M370.6,73.6c-0.1,0-0.1,0-0.2,0.1
								c-2.4,0.7-4.1,2.1-5.1,4.1c-1,2-1.5,4.7-1.4,8.2c0.1,3.6,0.6,6,1.6,7.3c1,1.3,2.7,1.6,5.1,0.8c0.1,0,0.1,0,0.2-0.1
								c2.4-0.7,4.1-2.1,5.1-4c1-1.9,1.5-4.7,1.4-8.1c-0.1-3.6-0.6-6-1.6-7.4C374.6,73.1,372.9,72.8,370.6,73.6"/>
							<path class="st7" d="M387.5,68.4c-1.6,0.5-2.9,1.9-3.9,4.3l-0.1,0l0-2.6l-4.2,1.3l0.3,19.5l4.4-1.3l-0.2-11.7
								c0-1.2,0.3-2.2,0.9-2.9c0.6-0.8,1.4-1.3,2.3-1.5c0.3-0.1,0.7-0.2,1.4-0.3l-0.1-4.8C388,68.3,387.7,68.4,387.5,68.4"/>
							<path class="st7" d="M393.7,74.6l0-0.8c0-1.1,0.1-2.1,0.5-2.9c0.3-0.9,0.9-1.4,1.7-1.6c0.8-0.3,1.4-0.1,1.7,0.6
								c0.3,0.6,0.5,1.8,0.6,3.4L393.7,74.6 M396,65.8c-1.1,0.3-2.1,0.8-2.9,1.5c-0.8,0.6-1.5,1.3-2,2c-0.5,0.7-0.8,1.6-1.1,2.6
								c-0.3,1-0.4,2-0.5,2.9c-0.1,0.9-0.1,2-0.1,3.1c0,0.9,0,1.6,0.1,2.1c0,0.6,0.1,1.2,0.2,2c0.1,0.8,0.2,1.4,0.4,1.9
								c0.2,0.5,0.4,0.9,0.8,1.4c0.3,0.5,0.7,0.8,1.2,1c0.5,0.2,1,0.3,1.7,0.3c0.7,0,1.5-0.1,2.4-0.4c2-0.6,3.5-1.7,4.5-3.1
								c1-1.5,1.5-3.4,1.5-5.7l-3.9,1.2c-0.1,1.3-0.3,2.3-0.7,3c-0.3,0.7-0.9,1.1-1.6,1.3c-0.8,0.2-1.3,0-1.7-0.8
								c-0.3-0.8-0.5-1.8-0.6-3.1l0-1.6l8.6-2.6l0-1.1c0-3.3-0.5-5.6-1.4-7S398.4,65.1,396,65.8"/>
						</g>
					</g>
				</g>
			</g>
		</g>
	</g>
</g>
</svg>
