<?xml version="1.0" encoding="utf-8"?>
<!-- Generator: Adobe Illustrator 19.2.1, SVG Export Plug-In . SVG Version: 6.00 Build 0)  -->
<svg version="1.1" id="Layer_1" xmlns="http://www.w3.org/2000/svg" xmlns:xlink="http://www.w3.org/1999/xlink" x="0px" y="0px"
	 viewBox="0 0 178.6 100" style="enable-background:new 0 0 178.6 100;" xml:space="preserve">
<style type="text/css">
	.Drop_x0020_Shadow{fill:none;}
	.Round_x0020_Corners_x0020_2_x0020_pt{fill:#FFFFFF;stroke:#000000;stroke-miterlimit:10;}
	.Live_x0020_Reflect_x0020_X{fill:none;}
	.Bevel_x0020_Soft{fill:url(#SVGID_1_);}
	.Dusk{fill:#FFFFFF;}
	.Foliage_GS{fill:#FFDD00;}
	.Pompadour_GS{fill-rule:evenodd;clip-rule:evenodd;fill:#44ADE2;}
	.st0{fill:#BC2826;}
	.st1{fill:#F05352;}
	.st2{fill:#CD2D27;}
	.st3{fill:#CF3027;}
	.st4{enable-background:new    ;}
	.st5{clip-path:url(#SVGID_3_);}
	.st6{fill:#FFFFFF;}
</style>
<linearGradient id="SVGID_1_" gradientUnits="userSpaceOnUse" x1="-159.1414" y1="-43.1248" x2="-158.4343" y2="-42.4177">
	<stop  offset="0" style="stop-color:#DEDFE3"/>
	<stop  offset="0.1738" style="stop-color:#D8D9DD"/>
	<stop  offset="0.352" style="stop-color:#C9CACD"/>
	<stop  offset="0.5323" style="stop-color:#B4B5B8"/>
	<stop  offset="0.7139" style="stop-color:#989A9C"/>
	<stop  offset="0.8949" style="stop-color:#797C7E"/>
	<stop  offset="1" style="stop-color:#656B6C"/>
</linearGradient>
<g>
	<polygon class="st0" points="62.3,100 0,81.3 0,39.2 62.3,57.8 	"/>
	<polygon class="st1" points="178.6,23 116.3,4.3 58.2,21.7 58.4,21.8 58.2,21.8 0,39.2 62.3,57.8 127.2,38.4 127.1,38.4 	"/>
	<polygon class="st2" points="178.6,23 120.5,40.4 120.5,40.4 62.3,57.8 62.3,100 120.5,82.6 120.5,82.5 178.6,65.1 	"/>
	<ellipse class="st3" cx="61.7" cy="39.4" rx="26.7" ry="9.7"/>
	<rect x="34.9" y="27.5" class="st3" width="53.4" height="11.9"/>
	<ellipse class="st1" cx="61.7" cy="27.5" rx="26.7" ry="9.7"/>
	<ellipse class="st3" cx="119.8" cy="21.9" rx="26.7" ry="9.7"/>
	<rect x="93.1" y="10.1" class="st3" width="53.5" height="11.9"/>
	<ellipse class="st1" cx="119.8" cy="9.7" rx="26.7" ry="9.7"/>
	<g>
		<g>
			<g class="st4">
				<defs>
					<polygon id="SVGID_2_" class="st4" points="98,75.9 97.6,61.7 148.5,47.4 149,61.6 					"/>
				</defs>
				<clipPath id="SVGID_3_">
					<use xlink:href="#SVGID_2_"  style="overflow:visible;"/>
				</clipPath>
				<g class="st5">
					<g>
						<g>
							<g>
								<path class="st6" d="M99.7,66.2l-0.1-3.2l0.9-0.3c0.9-0.3,1.4,0.1,1.4,1.2c0,1.1-0.4,1.8-1.4,2.1L99.7,66.2 M101.2,60.8
									l-3.6,1l0.4,11.3l1.9-0.5l-0.2-4.8l1-0.3c0.7-0.2,1.1,0.2,1.2,1.1l0.1,2.1c0,0.6,0.1,0.9,0.3,1.1l2.1-0.6l0-0.1
									c-0.2-0.1-0.3-0.2-0.4-0.5c0-0.3-0.1-0.8-0.1-1.4c0-0.7-0.1-1.2-0.1-1.5c-0.1-0.6-0.2-1-0.5-1.2c-0.2-0.2-0.6-0.3-1.1-0.3
									l0,0c1.1-0.6,1.6-1.6,1.5-3.2c0-1-0.3-1.6-0.7-2C102.6,60.6,102,60.6,101.2,60.8"/>
								<path class="st6" d="M106.8,65.3l0-0.3c0-0.5,0-0.9,0.2-1.3c0.1-0.4,0.4-0.6,0.7-0.7c0.4-0.1,0.6,0,0.7,0.3
									c0.1,0.3,0.2,0.8,0.3,1.5L106.8,65.3 M107.7,61.5c-0.5,0.1-0.9,0.3-1.3,0.6c-0.3,0.3-0.6,0.6-0.8,0.9
									c-0.2,0.3-0.4,0.7-0.5,1.1c-0.1,0.4-0.2,0.9-0.2,1.3c0,0.4,0,0.8,0,1.4c0,0.4,0,0.7,0,0.9c0,0.2,0.1,0.5,0.1,0.9
									c0,0.3,0.1,0.6,0.2,0.8c0.1,0.2,0.2,0.4,0.3,0.6c0.1,0.2,0.3,0.4,0.5,0.5c0.2,0.1,0.4,0.1,0.7,0.2c0.3,0,0.6,0,1-0.1
									c0.9-0.2,1.5-0.7,1.9-1.3c0.4-0.6,0.6-1.4,0.6-2.5l-1.7,0.5c0,0.6-0.1,1-0.3,1.3c-0.1,0.3-0.4,0.5-0.7,0.6
									c-0.3,0.1-0.6,0-0.7-0.4c-0.2-0.3-0.2-0.8-0.3-1.4l0-0.7l3.7-1l0-0.5c0-1.4-0.3-2.4-0.7-3.1
									C109.5,61.4,108.8,61.3,107.7,61.5"/>
								<path class="st6" d="M114.5,67c-0.4,0.1-0.7,0-0.8-0.4c-0.2-0.4-0.2-1.1-0.3-2.1c0-1,0-1.7,0.1-2.2c0.1-0.5,0.4-0.8,0.8-0.9
									c0.4-0.1,0.7,0,0.8,0.4c0.1,0.4,0.2,1.1,0.3,2.1c0,1,0,1.7-0.1,2.2C115.1,66.6,114.9,66.9,114.5,67 M114.8,59.5
									c-0.4,0.1-0.7,0.3-0.9,0.5c-0.3,0.3-0.5,0.6-0.7,1.1l0,0l0-0.9l-1.8,0.5l0.4,11.2l1.9-0.5l-0.1-3.5l0,0
									c0.4,0.5,0.9,0.7,1.6,0.5c0.8-0.2,1.3-0.7,1.7-1.5c0.3-0.8,0.5-2,0.4-3.5c-0.1-1.6-0.3-2.7-0.7-3.3
									C116.2,59.5,115.6,59.3,114.8,59.5"/>
								<path class="st6" d="M121,65.3c-0.2,0.1-0.4,0-0.6-0.1c-0.1-0.1-0.3-0.3-0.3-0.6c-0.1-0.3-0.1-0.6-0.2-0.9
									c0-0.3-0.1-0.7-0.1-1.2c0-0.5,0-0.9,0-1.2c0-0.3,0-0.6,0.1-0.9c0.1-0.3,0.1-0.6,0.3-0.7c0.1-0.2,0.3-0.3,0.5-0.4
									c0.4-0.1,0.6,0.1,0.8,0.5c0.2,0.4,0.3,1.2,0.3,2.2c0,1.1,0,1.9-0.1,2.4C121.6,64.9,121.4,65.2,121,65.3 M120.8,57.9
									C120.8,57.9,120.8,57.9,120.8,57.9c-1.1,0.3-1.8,0.9-2.2,1.7c-0.4,0.9-0.6,2-0.6,3.5c0.1,1.6,0.3,2.6,0.7,3.2
									c0.4,0.6,1.2,0.7,2.2,0.4c0,0,0.1,0,0.1,0c1-0.3,1.8-0.9,2.2-1.7c0.4-0.8,0.6-2,0.6-3.5c-0.1-1.6-0.3-2.6-0.7-3.2
									C122.6,57.7,121.9,57.6,120.8,57.9"/>
								<path class="st6" d="M128.1,55.8c-0.7,0.2-1.2,0.8-1.6,1.8l0,0l0-1.1l-1.8,0.5l0.3,8.5l1.9-0.5l-0.2-5.1
									c0-0.5,0.1-0.9,0.4-1.3c0.3-0.3,0.6-0.5,1-0.6c0.1,0,0.3-0.1,0.6-0.1l-0.1-2.1C128.3,55.8,128.2,55.8,128.1,55.8"/>
								<path class="st6" d="M131.4,52.7l-1.9,0.5l0.1,2.4l-0.9,0.3l0,1.5l0.9-0.3l0.2,4.9c0,0.9,0.2,1.4,0.4,1.7
									c0.2,0.2,0.7,0.2,1.4,0c0.1,0,0.3-0.1,0.6-0.2c0.3-0.1,0.5-0.2,0.6-0.2l0-1.5c-0.2,0.1-0.3,0.1-0.4,0.2
									c-0.3,0.1-0.4,0.1-0.5-0.1c-0.1-0.1-0.2-0.3-0.2-0.7l-0.1-4.6l1.1-0.3l0-1.5l-1.1,0.3L131.4,52.7"/>
								<path class="st6" d="M135.1,54.1l-1.9,0.5l0.3,8.5l1.9-0.5L135.1,54.1 M135,51.2l-1.9,0.5l0.1,1.9l1.9-0.5L135,51.2"/>
								<path class="st6" d="M140.1,52.5c-0.9,0.2-1.5,0.8-1.8,1.7l0,0l0-1l-1.8,0.5l0.3,8.5l1.9-0.5l-0.2-5.6
									c0-0.9,0.3-1.5,0.9-1.7c0.3-0.1,0.5,0,0.6,0.1c0.1,0.1,0.2,0.4,0.2,0.9l0.2,5.8l1.9-0.5l-0.2-6.3
									C142,52.8,141.3,52.1,140.1,52.5"/>
								<path class="st6" d="M146.1,57.8c-0.4,0.1-0.6,0-0.8-0.4c-0.1-0.4-0.2-0.9-0.2-1.6c0-1.2,0-2,0.1-2.5
									c0.1-0.5,0.4-0.8,0.8-0.9c0.4-0.1,0.6,0,0.8,0.4c0.2,0.4,0.2,1.1,0.3,2.1c0,0.8,0,1.4-0.2,1.9
									C146.7,57.4,146.4,57.7,146.1,57.8 M145.3,51c-0.5,0.1-0.9,0.4-1.2,0.7c-0.3,0.3-0.5,0.8-0.7,1.3c-0.1,0.5-0.2,1-0.3,1.4
									c0,0.5,0,1,0,1.6c0,1.5,0.3,2.6,0.7,3.1c0.4,0.6,1,0.7,1.7,0.5c0.6-0.2,1.1-0.7,1.5-1.5l0,0l0,1.1c0,1-0.3,1.6-1,1.8
									c-0.2,0.1-0.4,0-0.6-0.1c-0.2-0.1-0.3-0.3-0.3-0.6l-1.8,0.5c0,0.7,0.3,1.2,0.7,1.5c0.4,0.3,1.1,0.3,1.8,0.1
									c1.1-0.3,1.8-0.8,2.3-1.5c0.5-0.7,0.7-1.6,0.6-2.7l-0.3-8.1l-1.8,0.5l0,0.9l0,0C146.5,51.1,146,50.8,145.3,51"/>
							</g>
						</g>
					</g>
				</g>
			</g>
		</g>
	</g>
</g>
</svg>
